<svg width="1348" height="63" viewBox="0 0 1348 63" fill="none" xmlns="http://www.w3.org/2000/svg">
<line x1="-1.60233e-05" y1="0.543091" x2="1348" y2="0.500016" stroke="white" stroke-opacity="0.5"/>
<line x1="988.5" y1="35.9928" x2="988.5" y2="60.9569" stroke="white" stroke-opacity="0.5"/>
<line x1="665.5" y1="35.9928" x2="665.5" y2="60.9569" stroke="white" stroke-opacity="0.5"/>
<line x1="427.5" y1="35.9928" x2="427.5" y2="60.9569" stroke="white" stroke-opacity="0.5"/>
<line x1="165.5" y1="35.9928" x2="165.5" y2="60.9569" stroke="white" stroke-opacity="0.5"/>
<path d="M41.78 45.06C41.116 45.06 40.548 44.964 40.076 44.772C39.604 44.58 39.24 44.308 38.984 43.956C38.736 43.604 38.612 43.184 38.612 42.696C38.612 42.224 38.736 41.82 38.984 41.484C39.232 41.148 39.592 40.892 40.064 40.716C40.536 40.532 41.108 40.44 41.78 40.44C42.452 40.44 43.024 40.532 43.496 40.716C43.976 40.892 44.34 41.148 44.588 41.484C44.844 41.82 44.972 42.224 44.972 42.696C44.972 43.184 44.844 43.604 44.588 43.956C44.332 44.308 43.964 44.58 43.484 44.772C43.012 44.964 42.444 45.06 41.78 45.06ZM41.78 44.532C42.588 44.532 43.22 44.368 43.676 44.04C44.132 43.712 44.36 43.264 44.36 42.696C44.36 42.136 44.132 41.692 43.676 41.364C43.22 41.036 42.588 40.872 41.78 40.872C40.972 40.872 40.344 41.036 39.896 41.364C39.448 41.692 39.224 42.136 39.224 42.696C39.224 43.264 39.448 43.712 39.896 44.04C40.344 44.368 40.972 44.532 41.78 44.532ZM41.78 40.788C41.172 40.788 40.652 40.708 40.22 40.548C39.796 40.38 39.472 40.14 39.248 39.828C39.024 39.516 38.912 39.144 38.912 38.712C38.912 38.264 39.028 37.88 39.26 37.56C39.5 37.232 39.836 36.98 40.268 36.804C40.7 36.628 41.204 36.54 41.78 36.54C42.364 36.54 42.872 36.628 43.304 36.804C43.736 36.98 44.072 37.232 44.312 37.56C44.552 37.88 44.672 38.264 44.672 38.712C44.672 39.144 44.556 39.516 44.324 39.828C44.1 40.14 43.772 40.38 43.34 40.548C42.908 40.708 42.388 40.788 41.78 40.788ZM41.78 40.368C42.5 40.368 43.06 40.22 43.46 39.924C43.86 39.628 44.06 39.232 44.06 38.736C44.06 38.216 43.852 37.808 43.436 37.512C43.028 37.216 42.476 37.068 41.78 37.068C41.092 37.068 40.544 37.216 40.136 37.512C39.728 37.808 39.524 38.212 39.524 38.724C39.524 39.228 39.72 39.628 40.112 39.924C40.512 40.22 41.068 40.368 41.78 40.368ZM49.362 45.06C48.698 45.06 48.13 44.964 47.658 44.772C47.186 44.58 46.822 44.308 46.566 43.956C46.318 43.604 46.194 43.184 46.194 42.696C46.194 42.224 46.318 41.82 46.566 41.484C46.814 41.148 47.174 40.892 47.646 40.716C48.118 40.532 48.69 40.44 49.362 40.44C50.034 40.44 50.606 40.532 51.078 40.716C51.558 40.892 51.922 41.148 52.17 41.484C52.426 41.82 52.554 42.224 52.554 42.696C52.554 43.184 52.426 43.604 52.17 43.956C51.914 44.308 51.546 44.58 51.066 44.772C50.594 44.964 50.026 45.06 49.362 45.06ZM49.362 44.532C50.17 44.532 50.802 44.368 51.258 44.04C51.714 43.712 51.942 43.264 51.942 42.696C51.942 42.136 51.714 41.692 51.258 41.364C50.802 41.036 50.17 40.872 49.362 40.872C48.554 40.872 47.926 41.036 47.478 41.364C47.03 41.692 46.806 42.136 46.806 42.696C46.806 43.264 47.03 43.712 47.478 44.04C47.926 44.368 48.554 44.532 49.362 44.532ZM49.362 40.788C48.754 40.788 48.234 40.708 47.802 40.548C47.378 40.38 47.054 40.14 46.83 39.828C46.606 39.516 46.494 39.144 46.494 38.712C46.494 38.264 46.61 37.88 46.842 37.56C47.082 37.232 47.418 36.98 47.85 36.804C48.282 36.628 48.786 36.54 49.362 36.54C49.946 36.54 50.454 36.628 50.886 36.804C51.318 36.98 51.654 37.232 51.894 37.56C52.134 37.88 52.254 38.264 52.254 38.712C52.254 39.144 52.138 39.516 51.906 39.828C51.682 40.14 51.354 40.38 50.922 40.548C50.49 40.708 49.97 40.788 49.362 40.788ZM49.362 40.368C50.082 40.368 50.642 40.22 51.042 39.924C51.442 39.628 51.642 39.232 51.642 38.736C51.642 38.216 51.434 37.808 51.018 37.512C50.61 37.216 50.058 37.068 49.362 37.068C48.674 37.068 48.126 37.216 47.718 37.512C47.31 37.808 47.106 38.212 47.106 38.724C47.106 39.228 47.302 39.628 47.694 39.924C48.094 40.22 48.65 40.368 49.362 40.368ZM43.112 60.06C42.488 60.06 41.908 59.956 41.372 59.748C40.844 59.532 40.384 59.232 39.992 58.848C39.6 58.464 39.296 58.016 39.08 57.504C38.864 56.984 38.756 56.416 38.756 55.8C38.756 55.184 38.864 54.62 39.08 54.108C39.296 53.588 39.6 53.136 39.992 52.752C40.392 52.368 40.856 52.072 41.384 51.864C41.912 51.648 42.488 51.54 43.112 51.54C43.704 51.54 44.256 51.636 44.768 51.828C45.288 52.02 45.732 52.312 46.1 52.704L45.716 53.1C45.356 52.748 44.956 52.496 44.516 52.344C44.084 52.184 43.624 52.104 43.136 52.104C42.6 52.104 42.1 52.196 41.636 52.38C41.18 52.564 40.78 52.824 40.436 53.16C40.1 53.496 39.836 53.888 39.644 54.336C39.46 54.784 39.368 55.272 39.368 55.8C39.368 56.328 39.46 56.816 39.644 57.264C39.836 57.712 40.1 58.104 40.436 58.44C40.78 58.776 41.18 59.036 41.636 59.22C42.1 59.404 42.6 59.496 43.136 59.496C43.624 59.496 44.084 59.42 44.516 59.268C44.956 59.108 45.356 58.848 45.716 58.488L46.1 58.884C45.732 59.276 45.288 59.572 44.768 59.772C44.256 59.964 43.704 60.06 43.112 60.06ZM51.5026 60.06C50.8786 60.06 50.2986 59.956 49.7626 59.748C49.2346 59.532 48.7706 59.232 48.3706 58.848C47.9786 58.456 47.6746 58.004 47.4586 57.492C47.2426 56.972 47.1346 56.408 47.1346 55.8C47.1346 55.192 47.2426 54.632 47.4586 54.12C47.6746 53.6 47.9786 53.148 48.3706 52.764C48.7706 52.372 49.2346 52.072 49.7626 51.864C50.2986 51.648 50.8786 51.54 51.5026 51.54C52.1266 51.54 52.7026 51.648 53.2306 51.864C53.7666 52.072 54.2306 52.368 54.6226 52.752C55.0146 53.136 55.3186 53.588 55.5346 54.108C55.7586 54.62 55.8706 55.184 55.8706 55.8C55.8706 56.416 55.7586 56.984 55.5346 57.504C55.3186 58.016 55.0146 58.464 54.6226 58.848C54.2306 59.232 53.7666 59.532 53.2306 59.748C52.7026 59.956 52.1266 60.06 51.5026 60.06ZM51.5026 59.496C52.0386 59.496 52.5346 59.404 52.9906 59.22C53.4466 59.036 53.8426 58.776 54.1786 58.44C54.5146 58.104 54.7746 57.712 54.9586 57.264C55.1506 56.816 55.2466 56.328 55.2466 55.8C55.2466 55.264 55.1506 54.776 54.9586 54.336C54.7746 53.888 54.5146 53.496 54.1786 53.16C53.8426 52.824 53.4466 52.564 52.9906 52.38C52.5346 52.196 52.0386 52.104 51.5026 52.104C50.9666 52.104 50.4706 52.196 50.0146 52.38C49.5586 52.564 49.1586 52.824 48.8146 53.16C48.4786 53.496 48.2146 53.888 48.0226 54.336C47.8386 54.776 47.7466 55.264 47.7466 55.8C47.7466 56.328 47.8386 56.816 48.0226 57.264C48.2146 57.712 48.4786 58.104 48.8146 58.44C49.1586 58.776 49.5586 59.036 50.0146 59.22C50.4706 59.404 50.9666 59.496 51.5026 59.496ZM56.8307 58.92L57.0827 58.488C57.4587 58.832 57.8827 59.088 58.3547 59.256C58.8267 59.424 59.3027 59.512 59.7827 59.52C60.2627 59.52 60.7027 59.448 61.1027 59.304C61.5107 59.152 61.8387 58.932 62.0867 58.644C62.3347 58.348 62.4587 57.992 62.4587 57.576C62.4587 57.032 62.2507 56.616 61.8347 56.328C61.4187 56.04 60.8347 55.896 60.0827 55.896H58.3547V55.368H60.0587C60.6987 55.368 61.1987 55.232 61.5587 54.96C61.9187 54.68 62.0987 54.296 62.0987 53.808C62.0987 53.456 61.9987 53.156 61.7987 52.908C61.6067 52.66 61.3427 52.468 61.0067 52.332C60.6787 52.188 60.3067 52.108 59.8907 52.092C59.4747 52.076 59.0427 52.128 58.5947 52.248C58.1547 52.368 57.7307 52.56 57.3227 52.824L57.0947 52.308C57.5827 52.012 58.0867 51.804 58.6067 51.684C59.1267 51.556 59.6307 51.512 60.1187 51.552C60.6147 51.592 61.0547 51.704 61.4387 51.888C61.8307 52.072 62.1427 52.32 62.3747 52.632C62.6067 52.944 62.7227 53.312 62.7227 53.736C62.7227 54.144 62.6227 54.5 62.4227 54.804C62.2227 55.1 61.9387 55.332 61.5707 55.5C61.2027 55.66 60.7707 55.74 60.2747 55.74L60.3227 55.512C60.8907 55.512 61.3787 55.6 61.7867 55.776C62.2027 55.952 62.5227 56.2 62.7467 56.52C62.9707 56.84 63.0827 57.216 63.0827 57.648C63.0827 58.064 62.9787 58.432 62.7707 58.752C62.5707 59.064 62.2947 59.324 61.9427 59.532C61.5987 59.732 61.2067 59.88 60.7667 59.976C60.3347 60.064 59.8867 60.084 59.4227 60.036C58.9587 59.996 58.5027 59.884 58.0547 59.7C57.6067 59.516 57.1987 59.256 56.8307 58.92ZM65.469 60V51.6H68.853C69.717 51.6 70.397 51.78 70.893 52.14C71.397 52.5 71.649 53.032 71.649 53.736C71.649 54.432 71.405 54.956 70.917 55.308C70.437 55.66 69.809 55.836 69.033 55.836L69.237 55.596C70.173 55.596 70.881 55.78 71.361 56.148C71.841 56.516 72.081 57.056 72.081 57.768C72.081 58.48 71.833 59.032 71.337 59.424C70.841 59.808 70.089 60 69.081 60H65.469ZM66.081 59.484H69.093C69.869 59.484 70.457 59.344 70.857 59.064C71.265 58.776 71.469 58.332 71.469 57.732C71.469 57.124 71.265 56.684 70.857 56.412C70.457 56.132 69.869 55.992 69.093 55.992H66.081V59.484ZM66.081 55.488H68.841C69.537 55.488 70.073 55.348 70.449 55.068C70.833 54.78 71.025 54.36 71.025 53.808C71.025 53.248 70.833 52.828 70.449 52.548C70.073 52.26 69.537 52.116 68.841 52.116H66.081V55.488ZM75.009 55.464H79.557V56.004H75.009V55.464ZM75.081 59.448H80.265V60H74.469V51.6H80.085V52.152H75.081V59.448ZM81.2409 58.92L81.4929 58.488C81.8689 58.832 82.2929 59.088 82.7649 59.256C83.2369 59.424 83.7129 59.512 84.1929 59.52C84.6729 59.52 85.1129 59.448 85.5129 59.304C85.9209 59.152 86.2489 58.932 86.4969 58.644C86.7449 58.348 86.8689 57.992 86.8689 57.576C86.8689 57.032 86.6609 56.616 86.2449 56.328C85.8289 56.04 85.2449 55.896 84.4929 55.896H82.7649V55.368H84.4689C85.1089 55.368 85.6089 55.232 85.9689 54.96C86.3289 54.68 86.5089 54.296 86.5089 53.808C86.5089 53.456 86.4089 53.156 86.2089 52.908C86.0169 52.66 85.7529 52.468 85.4169 52.332C85.0889 52.188 84.7169 52.108 84.3009 52.092C83.8849 52.076 83.4529 52.128 83.0049 52.248C82.5649 52.368 82.1409 52.56 81.7329 52.824L81.5049 52.308C81.9929 52.012 82.4969 51.804 83.0169 51.684C83.5369 51.556 84.0409 51.512 84.5289 51.552C85.0249 51.592 85.4649 51.704 85.8489 51.888C86.2409 52.072 86.5529 52.32 86.7849 52.632C87.0169 52.944 87.1329 53.312 87.1329 53.736C87.1329 54.144 87.0329 54.5 86.8329 54.804C86.6329 55.1 86.3489 55.332 85.9809 55.5C85.6129 55.66 85.1809 55.74 84.6849 55.74L84.7329 55.512C85.3009 55.512 85.7889 55.6 86.1969 55.776C86.6129 55.952 86.9329 56.2 87.1569 56.52C87.3809 56.84 87.4929 57.216 87.4929 57.648C87.4929 58.064 87.3889 58.432 87.1809 58.752C86.9809 59.064 86.7049 59.324 86.3529 59.532C86.0089 59.732 85.6169 59.88 85.1769 59.976C84.7449 60.064 84.2969 60.084 83.8329 60.036C83.3689 59.996 82.9129 59.884 82.4649 59.7C82.0169 59.516 81.6089 59.256 81.2409 58.92ZM95.4472 59.7V52.152H91.1512L91.0792 54.408C91.0552 55.072 91.0152 55.708 90.9592 56.316C90.9032 56.924 90.8192 57.472 90.7072 57.96C90.5952 58.44 90.4392 58.828 90.2392 59.124C90.0472 59.42 89.8032 59.58 89.5072 59.604L88.7992 59.448C89.1352 59.472 89.4072 59.356 89.6152 59.1C89.8312 58.844 89.9992 58.48 90.1192 58.008C90.2472 57.536 90.3392 56.988 90.3952 56.364C90.4512 55.74 90.4912 55.072 90.5152 54.36L90.5992 51.6H96.0592V59.7H95.4472ZM88.4872 61.92L88.4992 59.448H97.3552V61.92H96.7672V60H89.0872L89.0752 61.92H88.4872ZM99.3128 60V51.6H99.9248V58.968L105.649 51.6H106.189V60H105.577V52.644L99.8528 60H99.3128ZM109.215 60V51.6H109.827V58.968L115.551 51.6H116.091V60H115.479V52.644L109.755 60H109.215ZM112.623 50.964C112.071 50.964 111.623 50.836 111.279 50.58C110.943 50.316 110.767 49.956 110.751 49.5H111.243C111.259 49.828 111.391 50.092 111.639 50.292C111.895 50.484 112.223 50.58 112.623 50.58C113.015 50.58 113.339 50.484 113.595 50.292C113.851 50.092 113.983 49.828 113.991 49.5H114.483C114.475 49.956 114.299 50.316 113.955 50.58C113.611 50.836 113.167 50.964 112.623 50.964Z" fill="white"/>
<path d="M262.112 45.06C261.488 45.06 260.908 44.956 260.372 44.748C259.844 44.532 259.38 44.232 258.98 43.848C258.588 43.456 258.284 43.004 258.068 42.492C257.852 41.972 257.744 41.408 257.744 40.8C257.744 40.192 257.852 39.632 258.068 39.12C258.284 38.6 258.588 38.148 258.98 37.764C259.38 37.372 259.844 37.072 260.372 36.864C260.908 36.648 261.488 36.54 262.112 36.54C262.736 36.54 263.312 36.648 263.84 36.864C264.376 37.072 264.84 37.368 265.232 37.752C265.624 38.136 265.928 38.588 266.144 39.108C266.368 39.62 266.48 40.184 266.48 40.8C266.48 41.416 266.368 41.984 266.144 42.504C265.928 43.016 265.624 43.464 265.232 43.848C264.84 44.232 264.376 44.532 263.84 44.748C263.312 44.956 262.736 45.06 262.112 45.06ZM262.112 44.496C262.648 44.496 263.144 44.404 263.6 44.22C264.056 44.036 264.452 43.776 264.788 43.44C265.124 43.104 265.384 42.712 265.568 42.264C265.76 41.816 265.856 41.328 265.856 40.8C265.856 40.264 265.76 39.776 265.568 39.336C265.384 38.888 265.124 38.496 264.788 38.16C264.452 37.824 264.056 37.564 263.6 37.38C263.144 37.196 262.648 37.104 262.112 37.104C261.576 37.104 261.08 37.196 260.624 37.38C260.168 37.564 259.768 37.824 259.424 38.16C259.088 38.496 258.824 38.888 258.632 39.336C258.448 39.776 258.356 40.264 258.356 40.8C258.356 41.328 258.448 41.816 258.632 42.264C258.824 42.712 259.088 43.104 259.424 43.44C259.768 43.776 260.168 44.036 260.624 44.22C261.08 44.404 261.576 44.496 262.112 44.496ZM274.574 45L271.178 40.776L271.694 40.476L275.294 45H274.574ZM268.742 45V36.6H269.354V45H268.742ZM269.15 41.016V40.464H271.706V41.016H269.15ZM271.73 40.86L271.166 40.74L274.394 36.6H275.078L271.73 40.86ZM280.382 45.06C279.758 45.06 279.178 44.956 278.642 44.748C278.114 44.532 277.65 44.232 277.25 43.848C276.858 43.456 276.554 43.004 276.338 42.492C276.122 41.972 276.014 41.408 276.014 40.8C276.014 40.192 276.122 39.632 276.338 39.12C276.554 38.6 276.858 38.148 277.25 37.764C277.65 37.372 278.114 37.072 278.642 36.864C279.178 36.648 279.758 36.54 280.382 36.54C281.006 36.54 281.582 36.648 282.11 36.864C282.646 37.072 283.11 37.368 283.502 37.752C283.894 38.136 284.198 38.588 284.414 39.108C284.638 39.62 284.75 40.184 284.75 40.8C284.75 41.416 284.638 41.984 284.414 42.504C284.198 43.016 283.894 43.464 283.502 43.848C283.11 44.232 282.646 44.532 282.11 44.748C281.582 44.956 281.006 45.06 280.382 45.06ZM280.382 44.496C280.918 44.496 281.414 44.404 281.87 44.22C282.326 44.036 282.722 43.776 283.058 43.44C283.394 43.104 283.654 42.712 283.838 42.264C284.03 41.816 284.126 41.328 284.126 40.8C284.126 40.264 284.03 39.776 283.838 39.336C283.654 38.888 283.394 38.496 283.058 38.16C282.722 37.824 282.326 37.564 281.87 37.38C281.414 37.196 280.918 37.104 280.382 37.104C279.846 37.104 279.35 37.196 278.894 37.38C278.438 37.564 278.038 37.824 277.694 38.16C277.358 38.496 277.094 38.888 276.902 39.336C276.718 39.776 276.626 40.264 276.626 40.8C276.626 41.328 276.718 41.816 276.902 42.264C277.094 42.712 277.358 43.104 277.694 43.44C278.038 43.776 278.438 44.036 278.894 44.22C279.35 44.404 279.846 44.496 280.382 44.496ZM285.974 45.06C285.878 45.06 285.782 45.052 285.686 45.036C285.598 45.028 285.494 45.012 285.374 44.988L285.446 44.424C285.582 44.456 285.714 44.472 285.842 44.472C286.21 44.472 286.506 44.328 286.73 44.04C286.962 43.752 287.138 43.3 287.258 42.684C287.378 42.06 287.458 41.248 287.498 40.248L287.618 36.6H293.126V45H292.514V36.96L292.694 37.152H288.002L288.182 36.96L288.062 40.236C288.03 41.084 287.97 41.812 287.882 42.42C287.794 43.02 287.666 43.516 287.498 43.908C287.338 44.3 287.13 44.592 286.874 44.784C286.626 44.968 286.326 45.06 285.974 45.06ZM299.753 45.06C299.129 45.06 298.549 44.956 298.013 44.748C297.485 44.532 297.021 44.232 296.621 43.848C296.229 43.456 295.925 43.004 295.709 42.492C295.493 41.972 295.385 41.408 295.385 40.8C295.385 40.192 295.493 39.632 295.709 39.12C295.925 38.6 296.229 38.148 296.621 37.764C297.021 37.372 297.485 37.072 298.013 36.864C298.549 36.648 299.129 36.54 299.753 36.54C300.377 36.54 300.953 36.648 301.481 36.864C302.017 37.072 302.481 37.368 302.873 37.752C303.265 38.136 303.569 38.588 303.785 39.108C304.009 39.62 304.121 40.184 304.121 40.8C304.121 41.416 304.009 41.984 303.785 42.504C303.569 43.016 303.265 43.464 302.873 43.848C302.481 44.232 302.017 44.532 301.481 44.748C300.953 44.956 300.377 45.06 299.753 45.06ZM299.753 44.496C300.289 44.496 300.785 44.404 301.241 44.22C301.697 44.036 302.093 43.776 302.429 43.44C302.765 43.104 303.025 42.712 303.209 42.264C303.401 41.816 303.497 41.328 303.497 40.8C303.497 40.264 303.401 39.776 303.209 39.336C303.025 38.888 302.765 38.496 302.429 38.16C302.093 37.824 301.697 37.564 301.241 37.38C300.785 37.196 300.289 37.104 299.753 37.104C299.217 37.104 298.721 37.196 298.265 37.38C297.809 37.564 297.409 37.824 297.065 38.16C296.729 38.496 296.465 38.888 296.273 39.336C296.089 39.776 295.997 40.264 295.997 40.8C295.997 41.328 296.089 41.816 296.273 42.264C296.465 42.712 296.729 43.104 297.065 43.44C297.409 43.776 297.809 44.036 298.265 44.22C298.721 44.404 299.217 44.496 299.753 44.496ZM261.032 60.06C260.296 60.06 259.676 59.892 259.172 59.556C258.676 59.22 258.3 58.736 258.044 58.104C257.788 57.472 257.66 56.72 257.66 55.848C257.66 54.896 257.816 54.104 258.128 53.472C258.44 52.832 258.876 52.352 259.436 52.032C259.996 51.704 260.648 51.54 261.392 51.54C261.752 51.54 262.096 51.572 262.424 51.636C262.752 51.7 263.044 51.812 263.3 51.972L263.048 52.464C262.832 52.328 262.58 52.232 262.292 52.176C262.012 52.112 261.712 52.08 261.392 52.08C260.448 52.08 259.692 52.388 259.124 53.004C258.556 53.612 258.272 54.528 258.272 55.752C258.272 55.936 258.284 56.172 258.308 56.46C258.332 56.74 258.384 57.016 258.464 57.288L258.248 57.228C258.304 56.764 258.46 56.368 258.716 56.04C258.972 55.712 259.3 55.464 259.7 55.296C260.1 55.12 260.54 55.032 261.02 55.032C261.58 55.032 262.068 55.136 262.484 55.344C262.908 55.544 263.236 55.832 263.468 56.208C263.708 56.584 263.828 57.024 263.828 57.528C263.828 58.04 263.704 58.488 263.456 58.872C263.216 59.248 262.884 59.54 262.46 59.748C262.044 59.956 261.568 60.06 261.032 60.06ZM261.008 59.532C261.448 59.532 261.832 59.452 262.16 59.292C262.488 59.124 262.744 58.892 262.928 58.596C263.12 58.292 263.216 57.94 263.216 57.54C263.216 56.94 263.012 56.46 262.604 56.1C262.204 55.74 261.648 55.56 260.936 55.56C260.48 55.56 260.076 55.648 259.724 55.824C259.372 56 259.096 56.24 258.896 56.544C258.704 56.848 258.608 57.188 258.608 57.564C258.608 57.892 258.7 58.208 258.884 58.512C259.068 58.808 259.336 59.052 259.688 59.244C260.048 59.436 260.488 59.532 261.008 59.532ZM268.167 60.06C267.527 60.06 266.959 59.888 266.463 59.544C265.967 59.2 265.579 58.712 265.299 58.08C265.019 57.44 264.879 56.68 264.879 55.8C264.879 54.92 265.019 54.164 265.299 53.532C265.579 52.892 265.967 52.4 266.463 52.056C266.959 51.712 267.527 51.54 268.167 51.54C268.815 51.54 269.383 51.712 269.871 52.056C270.367 52.4 270.755 52.892 271.035 53.532C271.315 54.164 271.455 54.92 271.455 55.8C271.455 56.68 271.315 57.44 271.035 58.08C270.755 58.712 270.367 59.2 269.871 59.544C269.383 59.888 268.815 60.06 268.167 60.06ZM268.167 59.496C268.703 59.496 269.171 59.352 269.571 59.064C269.971 58.768 270.283 58.344 270.507 57.792C270.731 57.24 270.843 56.576 270.843 55.8C270.843 55.016 270.731 54.352 270.507 53.808C270.283 53.256 269.971 52.836 269.571 52.548C269.171 52.252 268.703 52.104 268.167 52.104C267.639 52.104 267.171 52.252 266.763 52.548C266.363 52.836 266.051 53.256 265.827 53.808C265.603 54.352 265.491 55.016 265.491 55.8C265.491 56.576 265.603 57.24 265.827 57.792C266.051 58.344 266.363 58.768 266.763 59.064C267.171 59.352 267.639 59.496 268.167 59.496ZM276.065 60.06C275.425 60.06 274.857 59.888 274.361 59.544C273.865 59.2 273.477 58.712 273.197 58.08C272.917 57.44 272.777 56.68 272.777 55.8C272.777 54.92 272.917 54.164 273.197 53.532C273.477 52.892 273.865 52.4 274.361 52.056C274.857 51.712 275.425 51.54 276.065 51.54C276.713 51.54 277.281 51.712 277.769 52.056C278.265 52.4 278.653 52.892 278.933 53.532C279.213 54.164 279.353 54.92 279.353 55.8C279.353 56.68 279.213 57.44 278.933 58.08C278.653 58.712 278.265 59.2 277.769 59.544C277.281 59.888 276.713 60.06 276.065 60.06ZM276.065 59.496C276.601 59.496 277.069 59.352 277.469 59.064C277.869 58.768 278.181 58.344 278.405 57.792C278.629 57.24 278.741 56.576 278.741 55.8C278.741 55.016 278.629 54.352 278.405 53.808C278.181 53.256 277.869 52.836 277.469 52.548C277.069 52.252 276.601 52.104 276.065 52.104C275.537 52.104 275.069 52.252 274.661 52.548C274.261 52.836 273.949 53.256 273.725 53.808C273.501 54.352 273.389 55.016 273.389 55.8C273.389 56.576 273.501 57.24 273.725 57.792C273.949 58.344 274.261 58.768 274.661 59.064C275.069 59.352 275.537 59.496 276.065 59.496ZM283.964 60.06C283.324 60.06 282.756 59.888 282.26 59.544C281.764 59.2 281.376 58.712 281.096 58.08C280.816 57.44 280.676 56.68 280.676 55.8C280.676 54.92 280.816 54.164 281.096 53.532C281.376 52.892 281.764 52.4 282.26 52.056C282.756 51.712 283.324 51.54 283.964 51.54C284.612 51.54 285.18 51.712 285.668 52.056C286.164 52.4 286.552 52.892 286.832 53.532C287.112 54.164 287.252 54.92 287.252 55.8C287.252 56.68 287.112 57.44 286.832 58.08C286.552 58.712 286.164 59.2 285.668 59.544C285.18 59.888 284.612 60.06 283.964 60.06ZM283.964 59.496C284.5 59.496 284.968 59.352 285.368 59.064C285.768 58.768 286.08 58.344 286.304 57.792C286.528 57.24 286.64 56.576 286.64 55.8C286.64 55.016 286.528 54.352 286.304 53.808C286.08 53.256 285.768 52.836 285.368 52.548C284.968 52.252 284.5 52.104 283.964 52.104C283.436 52.104 282.968 52.252 282.56 52.548C282.16 52.836 281.848 53.256 281.624 53.808C281.4 54.352 281.288 55.016 281.288 55.8C281.288 56.576 281.4 57.24 281.624 57.792C281.848 58.344 282.16 58.768 282.56 59.064C282.968 59.352 283.436 59.496 283.964 59.496ZM291.44 58.92L291.692 58.488C292.068 58.832 292.492 59.088 292.964 59.256C293.436 59.424 293.912 59.512 294.392 59.52C294.872 59.52 295.312 59.448 295.712 59.304C296.12 59.152 296.448 58.932 296.696 58.644C296.944 58.348 297.068 57.992 297.068 57.576C297.068 57.032 296.86 56.616 296.444 56.328C296.028 56.04 295.444 55.896 294.692 55.896H292.964V55.368H294.668C295.308 55.368 295.808 55.232 296.168 54.96C296.528 54.68 296.708 54.296 296.708 53.808C296.708 53.456 296.608 53.156 296.408 52.908C296.216 52.66 295.952 52.468 295.616 52.332C295.288 52.188 294.916 52.108 294.5 52.092C294.084 52.076 293.652 52.128 293.204 52.248C292.764 52.368 292.34 52.56 291.932 52.824L291.704 52.308C292.192 52.012 292.696 51.804 293.216 51.684C293.736 51.556 294.24 51.512 294.728 51.552C295.224 51.592 295.664 51.704 296.048 51.888C296.44 52.072 296.752 52.32 296.984 52.632C297.216 52.944 297.332 53.312 297.332 53.736C297.332 54.144 297.232 54.5 297.032 54.804C296.832 55.1 296.548 55.332 296.18 55.5C295.812 55.66 295.38 55.74 294.884 55.74L294.932 55.512C295.5 55.512 295.988 55.6 296.396 55.776C296.812 55.952 297.132 56.2 297.356 56.52C297.58 56.84 297.692 57.216 297.692 57.648C297.692 58.064 297.588 58.432 297.38 58.752C297.18 59.064 296.904 59.324 296.552 59.532C296.208 59.732 295.816 59.88 295.376 59.976C294.944 60.064 294.496 60.084 294.032 60.036C293.568 59.996 293.112 59.884 292.664 59.7C292.216 59.516 291.808 59.256 291.44 58.92ZM300.078 60V51.6H303.462C304.326 51.6 305.006 51.78 305.502 52.14C306.006 52.5 306.258 53.032 306.258 53.736C306.258 54.432 306.014 54.956 305.526 55.308C305.046 55.66 304.418 55.836 303.642 55.836L303.846 55.596C304.782 55.596 305.49 55.78 305.97 56.148C306.45 56.516 306.69 57.056 306.69 57.768C306.69 58.48 306.442 59.032 305.946 59.424C305.45 59.808 304.698 60 303.69 60H300.078ZM300.69 59.484H303.702C304.478 59.484 305.066 59.344 305.466 59.064C305.874 58.776 306.078 58.332 306.078 57.732C306.078 57.124 305.874 56.684 305.466 56.412C305.066 56.132 304.478 55.992 303.702 55.992H300.69V59.484ZM300.69 55.488H303.45C304.146 55.488 304.682 55.348 305.058 55.068C305.442 54.78 305.634 54.36 305.634 53.808C305.634 53.248 305.442 52.828 305.058 52.548C304.682 52.26 304.146 52.116 303.45 52.116H300.69V55.488ZM309.618 55.464H314.166V56.004H309.618V55.464ZM309.69 59.448H314.874V60H309.078V51.6H314.694V52.152H309.69V59.448ZM315.85 58.92L316.102 58.488C316.478 58.832 316.902 59.088 317.374 59.256C317.846 59.424 318.322 59.512 318.802 59.52C319.282 59.52 319.722 59.448 320.122 59.304C320.53 59.152 320.858 58.932 321.106 58.644C321.354 58.348 321.478 57.992 321.478 57.576C321.478 57.032 321.27 56.616 320.854 56.328C320.438 56.04 319.854 55.896 319.102 55.896H317.374V55.368H319.078C319.718 55.368 320.218 55.232 320.578 54.96C320.938 54.68 321.118 54.296 321.118 53.808C321.118 53.456 321.018 53.156 320.818 52.908C320.626 52.66 320.362 52.468 320.026 52.332C319.698 52.188 319.326 52.108 318.91 52.092C318.494 52.076 318.062 52.128 317.614 52.248C317.174 52.368 316.75 52.56 316.342 52.824L316.114 52.308C316.602 52.012 317.106 51.804 317.626 51.684C318.146 51.556 318.65 51.512 319.138 51.552C319.634 51.592 320.074 51.704 320.458 51.888C320.85 52.072 321.162 52.32 321.394 52.632C321.626 52.944 321.742 53.312 321.742 53.736C321.742 54.144 321.642 54.5 321.442 54.804C321.242 55.1 320.958 55.332 320.59 55.5C320.222 55.66 319.79 55.74 319.294 55.74L319.342 55.512C319.91 55.512 320.398 55.6 320.806 55.776C321.222 55.952 321.542 56.2 321.766 56.52C321.99 56.84 322.102 57.216 322.102 57.648C322.102 58.064 321.998 58.432 321.79 58.752C321.59 59.064 321.314 59.324 320.962 59.532C320.618 59.732 320.226 59.88 319.786 59.976C319.354 60.064 318.906 60.084 318.442 60.036C317.978 59.996 317.522 59.884 317.074 59.7C316.626 59.516 316.218 59.256 315.85 58.92ZM330.057 59.7V52.152H325.761L325.689 54.408C325.665 55.072 325.625 55.708 325.569 56.316C325.513 56.924 325.429 57.472 325.317 57.96C325.205 58.44 325.049 58.828 324.849 59.124C324.657 59.42 324.413 59.58 324.117 59.604L323.409 59.448C323.745 59.472 324.017 59.356 324.225 59.1C324.441 58.844 324.609 58.48 324.729 58.008C324.857 57.536 324.949 56.988 325.005 56.364C325.061 55.74 325.101 55.072 325.125 54.36L325.209 51.6H330.669V59.7H330.057ZM323.097 61.92L323.109 59.448H331.965V61.92H331.377V60H323.697L323.685 61.92H323.097Z" fill="white"/>
<path d="M479.512 45V36.6H486.424V45H485.812V36.96L485.992 37.152H479.944L480.124 36.96V45H479.512ZM493.05 45.06C492.426 45.06 491.846 44.956 491.31 44.748C490.782 44.532 490.318 44.232 489.918 43.848C489.526 43.456 489.222 43.004 489.006 42.492C488.79 41.972 488.682 41.408 488.682 40.8C488.682 40.192 488.79 39.632 489.006 39.12C489.222 38.6 489.526 38.148 489.918 37.764C490.318 37.372 490.782 37.072 491.31 36.864C491.846 36.648 492.426 36.54 493.05 36.54C493.674 36.54 494.25 36.648 494.778 36.864C495.314 37.072 495.778 37.368 496.17 37.752C496.562 38.136 496.866 38.588 497.082 39.108C497.306 39.62 497.418 40.184 497.418 40.8C497.418 41.416 497.306 41.984 497.082 42.504C496.866 43.016 496.562 43.464 496.17 43.848C495.778 44.232 495.314 44.532 494.778 44.748C494.25 44.956 493.674 45.06 493.05 45.06ZM493.05 44.496C493.586 44.496 494.082 44.404 494.538 44.22C494.994 44.036 495.39 43.776 495.726 43.44C496.062 43.104 496.322 42.712 496.506 42.264C496.698 41.816 496.794 41.328 496.794 40.8C496.794 40.264 496.698 39.776 496.506 39.336C496.322 38.888 496.062 38.496 495.726 38.16C495.39 37.824 494.994 37.564 494.538 37.38C494.082 37.196 493.586 37.104 493.05 37.104C492.514 37.104 492.018 37.196 491.562 37.38C491.106 37.564 490.706 37.824 490.362 38.16C490.026 38.496 489.762 38.888 489.57 39.336C489.386 39.776 489.294 40.264 489.294 40.8C489.294 41.328 489.386 41.816 489.57 42.264C489.762 42.712 490.026 43.104 490.362 43.44C490.706 43.776 491.106 44.036 491.562 44.22C492.018 44.404 492.514 44.496 493.05 44.496ZM499.68 45V36.6H502.692C503.396 36.6 504 36.712 504.504 36.936C505.008 37.16 505.396 37.484 505.668 37.908C505.94 38.324 506.076 38.832 506.076 39.432C506.076 40.016 505.94 40.52 505.668 40.944C505.396 41.368 505.008 41.692 504.504 41.916C504 42.14 503.396 42.252 502.692 42.252H500.016L500.292 41.964V45H499.68ZM500.292 42L500.016 41.7H502.692C503.596 41.7 504.28 41.504 504.744 41.112C505.216 40.712 505.452 40.152 505.452 39.432C505.452 38.704 505.216 38.144 504.744 37.752C504.28 37.352 503.596 37.152 502.692 37.152H500.016L500.292 36.852V42ZM512.996 45V42.18L513.188 42.36H510.32C509.672 42.36 509.112 42.248 508.64 42.024C508.176 41.8 507.82 41.476 507.572 41.052C507.332 40.628 507.212 40.12 507.212 39.528C507.212 38.896 507.344 38.364 507.608 37.932C507.88 37.492 508.256 37.16 508.736 36.936C509.224 36.712 509.792 36.6 510.44 36.6H513.608V45H512.996ZM507.212 45L509.264 42.06H509.912L507.872 45H507.212ZM512.996 42.024V36.96L513.188 37.152H510.488C509.648 37.152 508.996 37.352 508.532 37.752C508.068 38.152 507.836 38.74 507.836 39.516C507.836 40.252 508.048 40.824 508.472 41.232C508.904 41.632 509.54 41.832 510.38 41.832H513.188L512.996 42.024ZM522.053 44.7V37.152H517.757L517.685 39.408C517.661 40.072 517.621 40.708 517.565 41.316C517.509 41.924 517.425 42.472 517.313 42.96C517.201 43.44 517.045 43.828 516.845 44.124C516.653 44.42 516.409 44.58 516.113 44.604L515.405 44.448C515.741 44.472 516.013 44.356 516.221 44.1C516.437 43.844 516.605 43.48 516.725 43.008C516.853 42.536 516.945 41.988 517.001 41.364C517.057 40.74 517.097 40.072 517.121 39.36L517.205 36.6H522.665V44.7H522.053ZM515.093 46.92L515.105 44.448H523.961V46.92H523.373V45H515.693L515.681 46.92H515.093ZM531.75 45L528.354 40.776L528.87 40.476L532.47 45H531.75ZM525.918 45V36.6H526.53V45H525.918ZM526.326 41.016V40.464H528.882V41.016H526.326ZM528.906 40.86L528.342 40.74L531.57 36.6H532.254L528.906 40.86ZM532.603 45L536.467 36.6H537.079L540.943 45H540.283L536.635 36.984H536.899L533.263 45H532.603ZM534.019 42.636L534.223 42.12H539.251L539.455 42.636H534.019ZM546.418 45V36.864L546.694 37.152H544.366V36.6H547.03V45H546.418ZM552.436 45.06C551.796 45.06 551.228 44.888 550.732 44.544C550.236 44.2 549.848 43.712 549.568 43.08C549.288 42.44 549.148 41.68 549.148 40.8C549.148 39.92 549.288 39.164 549.568 38.532C549.848 37.892 550.236 37.4 550.732 37.056C551.228 36.712 551.796 36.54 552.436 36.54C553.084 36.54 553.652 36.712 554.14 37.056C554.636 37.4 555.024 37.892 555.304 38.532C555.584 39.164 555.724 39.92 555.724 40.8C555.724 41.68 555.584 42.44 555.304 43.08C555.024 43.712 554.636 44.2 554.14 44.544C553.652 44.888 553.084 45.06 552.436 45.06ZM552.436 44.496C552.972 44.496 553.44 44.352 553.84 44.064C554.24 43.768 554.552 43.344 554.776 42.792C555 42.24 555.112 41.576 555.112 40.8C555.112 40.016 555 39.352 554.776 38.808C554.552 38.256 554.24 37.836 553.84 37.548C553.44 37.252 552.972 37.104 552.436 37.104C551.908 37.104 551.44 37.252 551.032 37.548C550.632 37.836 550.32 38.256 550.096 38.808C549.872 39.352 549.76 40.016 549.76 40.8C549.76 41.576 549.872 42.24 550.096 42.792C550.32 43.344 550.632 43.768 551.032 44.064C551.44 44.352 551.908 44.496 552.436 44.496ZM560.335 45.06C559.695 45.06 559.127 44.888 558.631 44.544C558.135 44.2 557.747 43.712 557.467 43.08C557.187 42.44 557.047 41.68 557.047 40.8C557.047 39.92 557.187 39.164 557.467 38.532C557.747 37.892 558.135 37.4 558.631 37.056C559.127 36.712 559.695 36.54 560.335 36.54C560.983 36.54 561.551 36.712 562.039 37.056C562.535 37.4 562.923 37.892 563.203 38.532C563.483 39.164 563.623 39.92 563.623 40.8C563.623 41.68 563.483 42.44 563.203 43.08C562.923 43.712 562.535 44.2 562.039 44.544C561.551 44.888 560.983 45.06 560.335 45.06ZM560.335 44.496C560.871 44.496 561.339 44.352 561.739 44.064C562.139 43.768 562.451 43.344 562.675 42.792C562.899 42.24 563.011 41.576 563.011 40.8C563.011 40.016 562.899 39.352 562.675 38.808C562.451 38.256 562.139 37.836 561.739 37.548C561.339 37.252 560.871 37.104 560.335 37.104C559.807 37.104 559.339 37.252 558.931 37.548C558.531 37.836 558.219 38.256 557.995 38.808C557.771 39.352 557.659 40.016 557.659 40.8C557.659 41.576 557.771 42.24 557.995 42.792C558.219 43.344 558.531 43.768 558.931 44.064C559.339 44.352 559.807 44.496 560.335 44.496ZM479.512 60V51.6H480.028L483.928 58.332H483.652L487.54 51.6H488.044L488.056 60H487.456L487.444 52.524H487.612L483.928 58.884H483.628L479.932 52.524H480.112V60H479.512ZM491.078 60V51.6H491.69V58.968L497.414 51.6H497.954V60H497.342V52.644L491.618 60H491.078ZM500.024 60.06C499.928 60.06 499.832 60.052 499.736 60.036C499.648 60.028 499.544 60.012 499.424 59.988L499.496 59.424C499.632 59.456 499.764 59.472 499.892 59.472C500.26 59.472 500.556 59.328 500.78 59.04C501.012 58.752 501.188 58.3 501.308 57.684C501.428 57.06 501.508 56.248 501.548 55.248L501.668 51.6H507.176V60H506.564V51.96L506.744 52.152H502.052L502.232 51.96L502.112 55.236C502.08 56.084 502.02 56.812 501.932 57.42C501.844 58.02 501.716 58.516 501.548 58.908C501.388 59.3 501.18 59.592 500.924 59.784C500.676 59.968 500.376 60.06 500.024 60.06ZM509.247 60.06C509.151 60.06 509.055 60.052 508.959 60.036C508.871 60.028 508.767 60.012 508.647 59.988L508.719 59.424C508.855 59.456 508.987 59.472 509.115 59.472C509.483 59.472 509.779 59.328 510.003 59.04C510.235 58.752 510.411 58.3 510.531 57.684C510.651 57.06 510.731 56.248 510.771 55.248L510.891 51.6H516.399V60H515.787V51.96L515.967 52.152H511.275L511.455 51.96L511.335 55.236C511.303 56.084 511.243 56.812 511.155 57.42C511.067 58.02 510.939 58.516 510.771 58.908C510.611 59.3 510.403 59.592 510.147 59.784C509.899 59.968 509.599 60.06 509.247 60.06ZM519.426 60V51.6H520.038V58.968L525.762 51.6H526.302V60H525.69V52.644L519.966 60H519.426ZM528.044 60L531.908 51.6H532.52L536.384 60H535.724L532.076 51.984H532.34L528.704 60H528.044ZM529.46 57.636L529.664 57.12H534.692L534.896 57.636H529.46ZM538.129 60V51.6H541.141C541.845 51.6 542.449 51.712 542.953 51.936C543.457 52.16 543.845 52.484 544.117 52.908C544.389 53.324 544.525 53.832 544.525 54.432C544.525 55.016 544.389 55.52 544.117 55.944C543.845 56.368 543.457 56.692 542.953 56.916C542.449 57.14 541.845 57.252 541.141 57.252H538.465L538.741 56.964V60H538.129ZM538.741 57L538.465 56.7H541.141C542.045 56.7 542.729 56.504 543.193 56.112C543.665 55.712 543.901 55.152 543.901 54.432C543.901 53.704 543.665 53.144 543.193 52.752C542.729 52.352 542.045 52.152 541.141 52.152H538.465L538.741 51.852V57ZM551.771 59.7V52.152H547.475L547.403 54.408C547.379 55.072 547.339 55.708 547.283 56.316C547.227 56.924 547.143 57.472 547.031 57.96C546.919 58.44 546.763 58.828 546.563 59.124C546.371 59.42 546.127 59.58 545.831 59.604L545.123 59.448C545.459 59.472 545.731 59.356 545.939 59.1C546.155 58.844 546.323 58.48 546.443 58.008C546.571 57.536 546.663 56.988 546.719 56.364C546.775 55.74 546.815 55.072 546.839 54.36L546.923 51.6H552.383V59.7H551.771ZM544.811 61.92L544.823 59.448H553.679V61.92H553.091V60H545.411L545.399 61.92H544.811ZM559.237 60.06C558.613 60.06 558.033 59.956 557.497 59.748C556.969 59.532 556.505 59.232 556.105 58.848C555.713 58.456 555.409 58.004 555.193 57.492C554.977 56.972 554.869 56.408 554.869 55.8C554.869 55.192 554.977 54.632 555.193 54.12C555.409 53.6 555.713 53.148 556.105 52.764C556.505 52.372 556.969 52.072 557.497 51.864C558.033 51.648 558.613 51.54 559.237 51.54C559.861 51.54 560.437 51.648 560.965 51.864C561.501 52.072 561.965 52.368 562.357 52.752C562.749 53.136 563.053 53.588 563.269 54.108C563.493 54.62 563.605 55.184 563.605 55.8C563.605 56.416 563.493 56.984 563.269 57.504C563.053 58.016 562.749 58.464 562.357 58.848C561.965 59.232 561.501 59.532 560.965 59.748C560.437 59.956 559.861 60.06 559.237 60.06ZM559.237 59.496C559.773 59.496 560.269 59.404 560.725 59.22C561.181 59.036 561.577 58.776 561.913 58.44C562.249 58.104 562.509 57.712 562.693 57.264C562.885 56.816 562.981 56.328 562.981 55.8C562.981 55.264 562.885 54.776 562.693 54.336C562.509 53.888 562.249 53.496 561.913 53.16C561.577 52.824 561.181 52.564 560.725 52.38C560.269 52.196 559.773 52.104 559.237 52.104C558.701 52.104 558.205 52.196 557.749 52.38C557.293 52.564 556.893 52.824 556.549 53.16C556.213 53.496 555.949 53.888 555.757 54.336C555.573 54.776 555.481 55.264 555.481 55.8C555.481 56.328 555.573 56.816 555.757 57.264C555.949 57.712 556.213 58.104 556.549 58.44C556.893 58.776 557.293 59.036 557.749 59.22C558.205 59.404 558.701 59.496 559.237 59.496ZM565.867 60V51.6H569.251C570.115 51.6 570.795 51.78 571.291 52.14C571.795 52.5 572.047 53.032 572.047 53.736C572.047 54.432 571.803 54.956 571.315 55.308C570.835 55.66 570.207 55.836 569.431 55.836L569.635 55.596C570.571 55.596 571.279 55.78 571.759 56.148C572.239 56.516 572.479 57.056 572.479 57.768C572.479 58.48 572.231 59.032 571.735 59.424C571.239 59.808 570.487 60 569.479 60H565.867ZM566.479 59.484H569.491C570.267 59.484 570.855 59.344 571.255 59.064C571.663 58.776 571.867 58.332 571.867 57.732C571.867 57.124 571.663 56.684 571.255 56.412C570.855 56.132 570.267 55.992 569.491 55.992H566.479V59.484ZM566.479 55.488H569.239C569.935 55.488 570.471 55.348 570.847 55.068C571.231 54.78 571.423 54.36 571.423 53.808C571.423 53.248 571.231 52.828 570.847 52.548C570.471 52.26 569.935 52.116 569.239 52.116H566.479V55.488ZM577.95 60V51.6H583.146V52.152H578.382L578.562 51.96V60H577.95ZM581.916 60L585.78 51.6H586.392L590.256 60H589.596L585.948 51.984H586.212L582.576 60H581.916ZM583.332 57.636L583.536 57.12H588.564L588.768 57.636H583.332ZM591.196 60.06C591.1 60.06 591.004 60.052 590.908 60.036C590.82 60.028 590.716 60.012 590.596 59.988L590.668 59.424C590.804 59.456 590.936 59.472 591.064 59.472C591.432 59.472 591.728 59.328 591.952 59.04C592.184 58.752 592.36 58.3 592.48 57.684C592.6 57.06 592.68 56.248 592.72 55.248L592.84 51.6H598.348V60H597.736V51.96L597.916 52.152H593.224L593.404 51.96L593.284 55.236C593.252 56.084 593.192 56.812 593.104 57.42C593.016 58.02 592.888 58.516 592.72 58.908C592.56 59.3 592.352 59.592 592.096 59.784C591.848 59.968 591.548 60.06 591.196 60.06ZM600.091 60L603.955 51.6H604.567L608.431 60H607.771L604.123 51.984H604.387L600.751 60H600.091ZM601.507 57.636L601.711 57.12H606.739L606.943 57.636H601.507ZM616.008 60L612.612 55.776L613.128 55.476L616.728 60H616.008ZM610.176 60V51.6H610.788V60H610.176ZM610.584 56.016V55.464H613.14V56.016H610.584ZM613.164 55.86L612.6 55.74L615.828 51.6H616.512L613.164 55.86ZM619.789 60V51.96L619.969 52.152H616.765V51.6H623.425V52.152H620.221L620.401 51.96V60H619.789ZM625.059 60V51.6H625.671V58.968L631.395 51.6H631.935V60H631.323V52.644L625.599 60H625.059ZM640.793 60L637.397 55.776L637.913 55.476L641.513 60H640.793ZM634.961 60V51.6H635.573V60H634.961ZM635.369 56.016V55.464H637.925V56.016H635.369ZM637.949 55.86L637.385 55.74L640.613 51.6H641.297L637.949 55.86Z" fill="white"/>
<path d="M726.512 45V36.6H733.424V45H732.812V36.96L732.992 37.152H726.944L727.124 36.96V45H726.512ZM736.45 45V36.6H739.462C740.166 36.6 740.77 36.712 741.273 36.936C741.778 37.16 742.166 37.484 742.438 37.908C742.71 38.324 742.846 38.832 742.846 39.432C742.846 40.016 742.71 40.52 742.438 40.944C742.166 41.368 741.778 41.692 741.273 41.916C740.77 42.14 740.166 42.252 739.462 42.252H736.786L737.062 41.964V45H736.45ZM737.062 42L736.786 41.7H739.462C740.366 41.7 741.05 41.504 741.514 41.112C741.986 40.712 742.222 40.152 742.222 39.432C742.222 38.704 741.986 38.144 741.514 37.752C741.05 37.352 740.366 37.152 739.462 37.152H736.786L737.062 36.852V42ZM744.805 45V36.6H745.417V43.968L751.141 36.6H751.681V45H751.069V37.644L745.345 45H744.805ZM754.707 45V36.6H755.223L759.123 43.332H758.847L762.735 36.6H763.239L763.251 45H762.651L762.639 37.524H762.807L759.123 43.884H758.823L755.127 37.524H755.307V45H754.707ZM766.814 40.464H771.362V41.004H766.814V40.464ZM766.886 44.448H772.07V45H766.274V36.6H771.89V37.152H766.886V44.448ZM774.114 45V36.6H777.126C777.83 36.6 778.434 36.712 778.938 36.936C779.442 37.16 779.83 37.484 780.102 37.908C780.374 38.324 780.51 38.832 780.51 39.432C780.51 40.016 780.374 40.52 780.102 40.944C779.83 41.368 779.442 41.692 778.938 41.916C778.434 42.14 777.83 42.252 777.126 42.252H774.45L774.726 41.964V45H774.114ZM774.726 42L774.45 41.7H777.126C778.03 41.7 778.714 41.504 779.178 41.112C779.65 40.712 779.886 40.152 779.886 39.432C779.886 38.704 779.65 38.144 779.178 37.752C778.714 37.352 778.03 37.152 777.126 37.152H774.45L774.726 36.852V42ZM788.697 36.6H789.309V45H788.697V36.6ZM783.081 45H782.469V36.6H783.081V45ZM788.769 41.004H783.009V40.464H788.769V41.004ZM795.936 45.06C795.312 45.06 794.732 44.956 794.196 44.748C793.668 44.532 793.204 44.232 792.804 43.848C792.412 43.456 792.108 43.004 791.892 42.492C791.676 41.972 791.568 41.408 791.568 40.8C791.568 40.192 791.676 39.632 791.892 39.12C792.108 38.6 792.412 38.148 792.804 37.764C793.204 37.372 793.668 37.072 794.196 36.864C794.732 36.648 795.312 36.54 795.936 36.54C796.56 36.54 797.136 36.648 797.664 36.864C798.2 37.072 798.664 37.368 799.056 37.752C799.448 38.136 799.752 38.588 799.968 39.108C800.192 39.62 800.304 40.184 800.304 40.8C800.304 41.416 800.192 41.984 799.968 42.504C799.752 43.016 799.448 43.464 799.056 43.848C798.664 44.232 798.2 44.532 797.664 44.748C797.136 44.956 796.56 45.06 795.936 45.06ZM795.936 44.496C796.472 44.496 796.968 44.404 797.424 44.22C797.88 44.036 798.276 43.776 798.612 43.44C798.948 43.104 799.208 42.712 799.392 42.264C799.584 41.816 799.68 41.328 799.68 40.8C799.68 40.264 799.584 39.776 799.392 39.336C799.208 38.888 798.948 38.496 798.612 38.16C798.276 37.824 797.88 37.564 797.424 37.38C796.968 37.196 796.472 37.104 795.936 37.104C795.4 37.104 794.904 37.196 794.448 37.38C793.992 37.564 793.592 37.824 793.248 38.16C792.912 38.496 792.648 38.888 792.456 39.336C792.272 39.776 792.18 40.264 792.18 40.8C792.18 41.328 792.272 41.816 792.456 42.264C792.648 42.712 792.912 43.104 793.248 43.44C793.592 43.776 793.992 44.036 794.448 44.22C794.904 44.404 795.4 44.496 795.936 44.496ZM804.653 42.672V42.228L809.213 36.6H809.897L805.349 42.228L805.013 42.132H811.805V42.672H804.653ZM809.441 45V42.672L809.453 42.132V40.08H810.041V45H809.441ZM815.936 45.06C815.296 45.06 814.728 44.888 814.232 44.544C813.736 44.2 813.348 43.712 813.068 43.08C812.788 42.44 812.648 41.68 812.648 40.8C812.648 39.92 812.788 39.164 813.068 38.532C813.348 37.892 813.736 37.4 814.232 37.056C814.728 36.712 815.296 36.54 815.936 36.54C816.584 36.54 817.152 36.712 817.64 37.056C818.136 37.4 818.524 37.892 818.804 38.532C819.084 39.164 819.224 39.92 819.224 40.8C819.224 41.68 819.084 42.44 818.804 43.08C818.524 43.712 818.136 44.2 817.64 44.544C817.152 44.888 816.584 45.06 815.936 45.06ZM815.936 44.496C816.472 44.496 816.94 44.352 817.34 44.064C817.74 43.768 818.052 43.344 818.276 42.792C818.5 42.24 818.612 41.576 818.612 40.8C818.612 40.016 818.5 39.352 818.276 38.808C818.052 38.256 817.74 37.836 817.34 37.548C816.94 37.252 816.472 37.104 815.936 37.104C815.408 37.104 814.94 37.252 814.532 37.548C814.132 37.836 813.82 38.256 813.596 38.808C813.372 39.352 813.26 40.016 813.26 40.8C813.26 41.576 813.372 42.24 813.596 42.792C813.82 43.344 814.132 43.768 814.532 44.064C814.94 44.352 815.408 44.496 815.936 44.496ZM830.313 45L826.917 40.776L827.433 40.476L831.033 45H830.313ZM824.481 45V36.6H825.093V45H824.481ZM824.889 41.016V40.464H827.445V41.016H824.889ZM827.469 40.86L826.905 40.74L830.133 36.6H830.817L827.469 40.86ZM832.532 45V36.6H835.916C836.78 36.6 837.46 36.78 837.956 37.14C838.46 37.5 838.712 38.032 838.712 38.736C838.712 39.432 838.468 39.956 837.98 40.308C837.5 40.66 836.872 40.836 836.096 40.836L836.3 40.596C837.236 40.596 837.944 40.78 838.424 41.148C838.904 41.516 839.144 42.056 839.144 42.768C839.144 43.48 838.896 44.032 838.4 44.424C837.904 44.808 837.152 45 836.144 45H832.532ZM833.144 44.484H836.156C836.932 44.484 837.52 44.344 837.92 44.064C838.328 43.776 838.532 43.332 838.532 42.732C838.532 42.124 838.328 41.684 837.92 41.412C837.52 41.132 836.932 40.992 836.156 40.992H833.144V44.484ZM833.144 40.488H835.904C836.6 40.488 837.136 40.348 837.512 40.068C837.896 39.78 838.088 39.36 838.088 38.808C838.088 38.248 837.896 37.828 837.512 37.548C837.136 37.26 836.6 37.116 835.904 37.116H833.144V40.488ZM841.532 45V36.6H842.144V43.968L847.868 36.6H848.408V45H847.796V37.644L842.072 45H841.532ZM857.662 36.6H858.274V45H857.662V36.6ZM852.046 45H851.434V36.6H852.046V45ZM857.734 41.004H851.974V40.464H857.734V41.004ZM862.933 45V36.96L863.113 37.152H859.909V36.6H866.569V37.152H863.365L863.545 36.96V45H862.933ZM868.203 45V36.6H868.815V43.968L874.539 36.6H875.079V45H874.467V37.644L868.743 45H868.203ZM877.149 45.06C877.053 45.06 876.957 45.052 876.861 45.036C876.773 45.028 876.669 45.012 876.549 44.988L876.621 44.424C876.757 44.456 876.889 44.472 877.017 44.472C877.385 44.472 877.681 44.328 877.905 44.04C878.137 43.752 878.313 43.3 878.433 42.684C878.553 42.06 878.633 41.248 878.673 40.248L878.793 36.6H884.301V45H883.689V36.96L883.869 37.152H879.177L879.357 36.96L879.237 40.236C879.205 41.084 879.145 41.812 879.057 42.42C878.969 43.02 878.841 43.516 878.673 43.908C878.513 44.3 878.305 44.592 878.049 44.784C877.801 44.968 877.501 45.06 877.149 45.06ZM886.372 45.06C886.276 45.06 886.18 45.052 886.084 45.036C885.996 45.028 885.892 45.012 885.772 44.988L885.844 44.424C885.98 44.456 886.112 44.472 886.24 44.472C886.608 44.472 886.904 44.328 887.128 44.04C887.36 43.752 887.536 43.3 887.656 42.684C887.776 42.06 887.856 41.248 887.896 40.248L888.016 36.6H893.524V45H892.912V36.96L893.092 37.152H888.4L888.58 36.96L888.46 40.236C888.428 41.084 888.368 41.812 888.28 42.42C888.192 43.02 888.064 43.516 887.896 43.908C887.736 44.3 887.528 44.592 887.272 44.784C887.024 44.968 886.724 45.06 886.372 45.06ZM896.551 45V36.6H897.163V43.968L902.887 36.6H903.427V45H902.815V37.644L897.091 45H896.551ZM910.053 45.06C909.429 45.06 908.849 44.956 908.313 44.748C907.785 44.532 907.321 44.232 906.921 43.848C906.529 43.456 906.225 43.004 906.009 42.492C905.793 41.972 905.685 41.408 905.685 40.8C905.685 40.192 905.793 39.632 906.009 39.12C906.225 38.6 906.529 38.148 906.921 37.764C907.321 37.372 907.785 37.072 908.313 36.864C908.849 36.648 909.429 36.54 910.053 36.54C910.677 36.54 911.253 36.648 911.781 36.864C912.317 37.072 912.781 37.368 913.173 37.752C913.565 38.136 913.869 38.588 914.085 39.108C914.309 39.62 914.421 40.184 914.421 40.8C914.421 41.416 914.309 41.984 914.085 42.504C913.869 43.016 913.565 43.464 913.173 43.848C912.781 44.232 912.317 44.532 911.781 44.748C911.253 44.956 910.677 45.06 910.053 45.06ZM910.053 44.496C910.589 44.496 911.085 44.404 911.541 44.22C911.997 44.036 912.393 43.776 912.729 43.44C913.065 43.104 913.325 42.712 913.509 42.264C913.701 41.816 913.797 41.328 913.797 40.8C913.797 40.264 913.701 39.776 913.509 39.336C913.325 38.888 913.065 38.496 912.729 38.16C912.393 37.824 911.997 37.564 911.541 37.38C911.085 37.196 910.589 37.104 910.053 37.104C909.517 37.104 909.021 37.196 908.565 37.38C908.109 37.564 907.709 37.824 907.365 38.16C907.029 38.496 906.765 38.888 906.573 39.336C906.389 39.776 906.297 40.264 906.297 40.8C906.297 41.328 906.389 41.816 906.573 42.264C906.765 42.712 907.029 43.104 907.365 43.44C907.709 43.776 908.109 44.036 908.565 44.22C909.021 44.404 909.517 44.496 910.053 44.496ZM922.912 36.6H923.524V45H922.912V36.6ZM917.296 45H916.684V36.6H917.296V45ZM922.984 41.004H917.224V40.464H922.984V41.004ZM930.151 45.06C929.527 45.06 928.947 44.956 928.411 44.748C927.883 44.532 927.419 44.232 927.019 43.848C926.627 43.456 926.323 43.004 926.107 42.492C925.891 41.972 925.783 41.408 925.783 40.8C925.783 40.192 925.891 39.632 926.107 39.12C926.323 38.6 926.627 38.148 927.019 37.764C927.419 37.372 927.883 37.072 928.411 36.864C928.947 36.648 929.527 36.54 930.151 36.54C930.775 36.54 931.351 36.648 931.879 36.864C932.415 37.072 932.879 37.368 933.271 37.752C933.663 38.136 933.967 38.588 934.183 39.108C934.407 39.62 934.519 40.184 934.519 40.8C934.519 41.416 934.407 41.984 934.183 42.504C933.967 43.016 933.663 43.464 933.271 43.848C932.879 44.232 932.415 44.532 931.879 44.748C931.351 44.956 930.775 45.06 930.151 45.06ZM930.151 44.496C930.687 44.496 931.183 44.404 931.639 44.22C932.095 44.036 932.491 43.776 932.827 43.44C933.163 43.104 933.423 42.712 933.607 42.264C933.799 41.816 933.895 41.328 933.895 40.8C933.895 40.264 933.799 39.776 933.607 39.336C933.423 38.888 933.163 38.496 932.827 38.16C932.491 37.824 932.095 37.564 931.639 37.38C931.183 37.196 930.687 37.104 930.151 37.104C929.615 37.104 929.119 37.196 928.663 37.38C928.207 37.564 927.807 37.824 927.463 38.16C927.127 38.496 926.863 38.888 926.671 39.336C926.487 39.776 926.395 40.264 926.395 40.8C926.395 41.328 926.487 41.816 926.671 42.264C926.863 42.712 927.127 43.104 927.463 43.44C927.807 43.776 928.207 44.036 928.663 44.22C929.119 44.404 929.615 44.496 930.151 44.496ZM936.782 45V36.6H940.166C941.03 36.6 941.71 36.78 942.206 37.14C942.71 37.5 942.962 38.032 942.962 38.736C942.962 39.432 942.718 39.956 942.23 40.308C941.75 40.66 941.122 40.836 940.346 40.836L940.55 40.596C941.486 40.596 942.194 40.78 942.674 41.148C943.154 41.516 943.394 42.056 943.394 42.768C943.394 43.48 943.146 44.032 942.65 44.424C942.154 44.808 941.402 45 940.394 45H936.782ZM937.394 44.484H940.406C941.182 44.484 941.77 44.344 942.17 44.064C942.578 43.776 942.782 43.332 942.782 42.732C942.782 42.124 942.578 41.684 942.17 41.412C941.77 41.132 941.182 40.992 940.406 40.992H937.394V44.484ZM937.394 40.488H940.154C940.85 40.488 941.386 40.348 941.762 40.068C942.146 39.78 942.338 39.36 942.338 38.808C942.338 38.248 942.146 37.828 941.762 37.548C941.386 37.26 940.85 37.116 940.154 37.116H937.394V40.488ZM731.732 56.34C731.228 56.564 730.724 56.736 730.22 56.856C729.724 56.976 729.248 57.036 728.792 57.036C727.84 57.036 727.096 56.808 726.56 56.352C726.032 55.888 725.768 55.24 725.768 54.408V51.6H726.38V54.348C726.38 55.02 726.596 55.544 727.028 55.92C727.468 56.296 728.072 56.484 728.84 56.484C729.288 56.484 729.756 56.424 730.244 56.304C730.74 56.176 731.236 55.996 731.732 55.764V56.34ZM731.588 60V51.6H732.2V60H731.588ZM735.759 55.464H740.307V56.004H735.759V55.464ZM735.831 59.448H741.015V60H735.219V51.6H740.835V52.152H735.831V59.448ZM739.071 50.592C738.959 50.592 738.859 50.552 738.771 50.472C738.683 50.384 738.639 50.28 738.639 50.16C738.639 50.032 738.683 49.928 738.771 49.848C738.859 49.768 738.959 49.728 739.071 49.728C739.191 49.728 739.291 49.768 739.371 49.848C739.459 49.928 739.503 50.032 739.503 50.16C739.503 50.28 739.459 50.384 739.371 50.472C739.291 50.552 739.191 50.592 739.071 50.592ZM737.007 50.592C736.887 50.592 736.783 50.552 736.695 50.472C736.615 50.384 736.575 50.28 736.575 50.16C736.575 50.032 736.615 49.928 736.695 49.848C736.783 49.768 736.887 49.728 737.007 49.728C737.127 49.728 737.227 49.768 737.307 49.848C737.395 49.928 737.439 50.032 737.439 50.16C737.439 50.28 737.395 50.384 737.307 50.472C737.227 50.552 737.127 50.592 737.007 50.592ZM743.059 60V51.6H746.071C746.775 51.6 747.379 51.712 747.883 51.936C748.387 52.16 748.775 52.484 749.047 52.908C749.319 53.324 749.455 53.832 749.455 54.432C749.455 55.016 749.319 55.52 749.047 55.944C748.775 56.368 748.387 56.692 747.883 56.916C747.379 57.14 746.775 57.252 746.071 57.252H743.395L743.671 56.964V60H743.059ZM743.671 57L743.395 56.7H746.071C746.975 56.7 747.659 56.504 748.123 56.112C748.595 55.712 748.831 55.152 748.831 54.432C748.831 53.704 748.595 53.144 748.123 52.752C747.659 52.352 746.975 52.152 746.071 52.152H743.395L743.671 51.852V57ZM757.642 51.6H758.254V60H757.642V51.6ZM752.026 60H751.414V51.6H752.026V60ZM757.714 56.004H751.954V55.464H757.714V56.004ZM764.654 54.672C765.638 54.672 766.39 54.892 766.91 55.332C767.43 55.772 767.69 56.424 767.69 57.288C767.69 58.176 767.414 58.852 766.862 59.316C766.318 59.772 765.53 60 764.498 60H761.282V51.6H761.894V54.672H764.654ZM764.51 59.484C765.35 59.484 765.986 59.3 766.418 58.932C766.85 58.564 767.066 58.02 767.066 57.3C767.066 56.588 766.85 56.06 766.418 55.716C765.994 55.364 765.358 55.188 764.51 55.188H761.894V59.484H764.51ZM769.238 60V51.6H769.85V60H769.238ZM771.899 51.6H772.619L775.151 55.14L777.695 51.6H778.427L775.535 55.644L778.655 60H777.923L775.151 56.16L772.403 60H771.683L774.779 55.656L771.899 51.6ZM789.139 59.7V52.152H784.843L784.771 54.408C784.747 55.072 784.707 55.708 784.651 56.316C784.595 56.924 784.511 57.472 784.399 57.96C784.287 58.44 784.131 58.828 783.931 59.124C783.739 59.42 783.495 59.58 783.199 59.604L782.491 59.448C782.827 59.472 783.099 59.356 783.307 59.1C783.523 58.844 783.691 58.48 783.811 58.008C783.939 57.536 784.031 56.988 784.087 56.364C784.143 55.74 784.183 55.072 784.207 54.36L784.291 51.6H789.751V59.7H789.139ZM782.179 61.92L782.191 59.448H791.047V61.92H790.459V60H782.779L782.767 61.92H782.179ZM796.376 54.672C797.36 54.672 798.112 54.892 798.632 55.332C799.152 55.772 799.412 56.424 799.412 57.288C799.412 58.176 799.136 58.852 798.584 59.316C798.04 59.772 797.252 60 796.22 60H793.004V51.6H793.616V54.672H796.376ZM796.232 59.484C797.072 59.484 797.708 59.3 798.14 58.932C798.572 58.564 798.788 58.02 798.788 57.3C798.788 56.588 798.572 56.06 798.14 55.716C797.716 55.364 797.08 55.188 796.232 55.188H793.616V59.484H796.232ZM800.96 60V51.6H801.572V60H800.96ZM804.594 60V51.6H807.606C808.31 51.6 808.914 51.712 809.418 51.936C809.922 52.16 810.31 52.484 810.582 52.908C810.854 53.324 810.99 53.832 810.99 54.432C810.99 55.016 810.854 55.52 810.582 55.944C810.31 56.368 809.922 56.692 809.418 56.916C808.914 57.14 808.31 57.252 807.606 57.252H804.93L805.206 56.964V60H804.594ZM805.206 57L804.93 56.7H807.606C808.51 56.7 809.194 56.504 809.658 56.112C810.13 55.712 810.366 55.152 810.366 54.432C810.366 53.704 810.13 53.144 809.658 52.752C809.194 52.352 808.51 52.152 807.606 52.152H804.93L805.206 51.852V57ZM816.149 60V51.6H819.533C820.397 51.6 821.077 51.78 821.573 52.14C822.077 52.5 822.329 53.032 822.329 53.736C822.329 54.432 822.085 54.956 821.597 55.308C821.117 55.66 820.489 55.836 819.713 55.836L819.917 55.596C820.853 55.596 821.561 55.78 822.041 56.148C822.521 56.516 822.761 57.056 822.761 57.768C822.761 58.48 822.513 59.032 822.017 59.424C821.521 59.808 820.769 60 819.761 60H816.149ZM816.761 59.484H819.773C820.549 59.484 821.137 59.344 821.537 59.064C821.945 58.776 822.149 58.332 822.149 57.732C822.149 57.124 821.945 56.684 821.537 56.412C821.137 56.132 820.549 55.992 819.773 55.992H816.761V59.484ZM816.761 55.488H819.521C820.217 55.488 820.753 55.348 821.129 55.068C821.513 54.78 821.705 54.36 821.705 53.808C821.705 53.248 821.513 52.828 821.129 52.548C820.753 52.26 820.217 52.116 819.521 52.116H816.761V55.488ZM828.749 60.06C828.125 60.06 827.545 59.956 827.009 59.748C826.481 59.532 826.017 59.232 825.617 58.848C825.225 58.456 824.921 58.004 824.705 57.492C824.489 56.972 824.381 56.408 824.381 55.8C824.381 55.192 824.489 54.632 824.705 54.12C824.921 53.6 825.225 53.148 825.617 52.764C826.017 52.372 826.481 52.072 827.009 51.864C827.545 51.648 828.125 51.54 828.749 51.54C829.373 51.54 829.949 51.648 830.477 51.864C831.013 52.072 831.477 52.368 831.869 52.752C832.261 53.136 832.565 53.588 832.781 54.108C833.005 54.62 833.117 55.184 833.117 55.8C833.117 56.416 833.005 56.984 832.781 57.504C832.565 58.016 832.261 58.464 831.869 58.848C831.477 59.232 831.013 59.532 830.477 59.748C829.949 59.956 829.373 60.06 828.749 60.06ZM828.749 59.496C829.285 59.496 829.781 59.404 830.237 59.22C830.693 59.036 831.089 58.776 831.425 58.44C831.761 58.104 832.021 57.712 832.205 57.264C832.397 56.816 832.493 56.328 832.493 55.8C832.493 55.264 832.397 54.776 832.205 54.336C832.021 53.888 831.761 53.496 831.425 53.16C831.089 52.824 830.693 52.564 830.237 52.38C829.781 52.196 829.285 52.104 828.749 52.104C828.213 52.104 827.717 52.196 827.261 52.38C826.805 52.564 826.405 52.824 826.061 53.16C825.725 53.496 825.461 53.888 825.269 54.336C825.085 54.776 824.993 55.264 824.993 55.8C824.993 56.328 825.085 56.816 825.269 57.264C825.461 57.712 825.725 58.104 826.061 58.44C826.405 58.776 826.805 59.036 827.261 59.22C827.717 59.404 828.213 59.496 828.749 59.496ZM838.461 60V51.6H841.845C842.709 51.6 843.389 51.78 843.885 52.14C844.389 52.5 844.641 53.032 844.641 53.736C844.641 54.432 844.397 54.956 843.909 55.308C843.429 55.66 842.801 55.836 842.025 55.836L842.229 55.596C843.165 55.596 843.873 55.78 844.353 56.148C844.833 56.516 845.073 57.056 845.073 57.768C845.073 58.48 844.825 59.032 844.329 59.424C843.833 59.808 843.081 60 842.073 60H838.461ZM839.073 59.484H842.085C842.861 59.484 843.449 59.344 843.849 59.064C844.257 58.776 844.461 58.332 844.461 57.732C844.461 57.124 844.257 56.684 843.849 56.412C843.449 56.132 842.861 55.992 842.085 55.992H839.073V59.484ZM839.073 55.488H841.833C842.529 55.488 843.065 55.348 843.441 55.068C843.825 54.78 844.017 54.36 844.017 53.808C844.017 53.248 843.825 52.828 843.441 52.548C843.065 52.26 842.529 52.116 841.833 52.116H839.073V55.488ZM851.061 60.06C850.437 60.06 849.857 59.956 849.321 59.748C848.793 59.532 848.333 59.232 847.941 58.848C847.549 58.464 847.245 58.016 847.029 57.504C846.813 56.984 846.705 56.416 846.705 55.8C846.705 55.184 846.813 54.62 847.029 54.108C847.245 53.588 847.549 53.136 847.941 52.752C848.341 52.368 848.805 52.072 849.333 51.864C849.861 51.648 850.437 51.54 851.061 51.54C851.653 51.54 852.205 51.636 852.717 51.828C853.237 52.02 853.681 52.312 854.049 52.704L853.665 53.1C853.305 52.748 852.905 52.496 852.465 52.344C852.033 52.184 851.573 52.104 851.085 52.104C850.549 52.104 850.049 52.196 849.585 52.38C849.129 52.564 848.729 52.824 848.385 53.16C848.049 53.496 847.785 53.888 847.593 54.336C847.409 54.784 847.317 55.272 847.317 55.8C847.317 56.328 847.409 56.816 847.593 57.264C847.785 57.712 848.049 58.104 848.385 58.44C848.729 58.776 849.129 59.036 849.585 59.22C850.049 59.404 850.549 59.496 851.085 59.496C851.573 59.496 852.033 59.42 852.465 59.268C852.905 59.108 853.305 58.848 853.665 58.488L854.049 58.884C853.681 59.276 853.237 59.572 852.717 59.772C852.205 59.964 851.653 60.06 851.061 60.06ZM856.568 55.464H861.116V56.004H856.568V55.464ZM856.64 59.448H861.824V60H856.028V51.6H861.644V52.152H856.64V59.448ZM863.063 60.06C862.967 60.06 862.871 60.052 862.775 60.036C862.687 60.028 862.583 60.012 862.463 59.988L862.535 59.424C862.671 59.456 862.803 59.472 862.931 59.472C863.299 59.472 863.595 59.328 863.819 59.04C864.051 58.752 864.227 58.3 864.347 57.684C864.467 57.06 864.547 56.248 864.587 55.248L864.707 51.6H870.215V60H869.603V51.96L869.783 52.152H865.091L865.271 51.96L865.151 55.236C865.119 56.084 865.059 56.812 864.971 57.42C864.883 58.02 864.755 58.516 864.587 58.908C864.427 59.3 864.219 59.592 863.963 59.784C863.715 59.968 863.415 60.06 863.063 60.06ZM873.782 55.464H878.33V56.004H873.782V55.464ZM873.854 59.448H879.038V60H873.242V51.6H878.858V52.152H873.854V59.448ZM887.31 51.6H887.922V60H887.31V51.6ZM881.694 60H881.082V51.6H881.694V60ZM887.382 56.004H881.622V55.464H887.382V56.004ZM897.178 51.6H897.79V60H897.178V51.6ZM891.562 60H890.95V51.6H891.562V60ZM897.25 56.004H891.49V55.464H897.25V56.004ZM904.417 60.06C903.793 60.06 903.213 59.956 902.677 59.748C902.149 59.532 901.685 59.232 901.285 58.848C900.893 58.456 900.589 58.004 900.373 57.492C900.157 56.972 900.049 56.408 900.049 55.8C900.049 55.192 900.157 54.632 900.373 54.12C900.589 53.6 900.893 53.148 901.285 52.764C901.685 52.372 902.149 52.072 902.677 51.864C903.213 51.648 903.793 51.54 904.417 51.54C905.041 51.54 905.617 51.648 906.145 51.864C906.681 52.072 907.145 52.368 907.537 52.752C907.929 53.136 908.233 53.588 908.449 54.108C908.673 54.62 908.785 55.184 908.785 55.8C908.785 56.416 908.673 56.984 908.449 57.504C908.233 58.016 907.929 58.464 907.537 58.848C907.145 59.232 906.681 59.532 906.145 59.748C905.617 59.956 905.041 60.06 904.417 60.06ZM904.417 59.496C904.953 59.496 905.449 59.404 905.905 59.22C906.361 59.036 906.757 58.776 907.093 58.44C907.429 58.104 907.689 57.712 907.873 57.264C908.065 56.816 908.161 56.328 908.161 55.8C908.161 55.264 908.065 54.776 907.873 54.336C907.689 53.888 907.429 53.496 907.093 53.16C906.757 52.824 906.361 52.564 905.905 52.38C905.449 52.196 904.953 52.104 904.417 52.104C903.881 52.104 903.385 52.196 902.929 52.38C902.473 52.564 902.073 52.824 901.729 53.16C901.393 53.496 901.129 53.888 900.937 54.336C900.753 54.776 900.661 55.264 900.661 55.8C900.661 56.328 900.753 56.816 900.937 57.264C901.129 57.712 901.393 58.104 901.729 58.44C902.073 58.776 902.473 59.036 902.929 59.22C903.385 59.404 903.881 59.496 904.417 59.496ZM911.047 60V51.6H911.659V58.968L917.383 51.6H917.923V60H917.311V52.644L911.587 60H911.047ZM914.455 50.964C913.903 50.964 913.455 50.836 913.111 50.58C912.775 50.316 912.599 49.956 912.583 49.5H913.075C913.091 49.828 913.223 50.092 913.471 50.292C913.727 50.484 914.055 50.58 914.455 50.58C914.847 50.58 915.171 50.484 915.427 50.292C915.683 50.092 915.815 49.828 915.823 49.5H916.315C916.307 49.956 916.131 50.316 915.787 50.58C915.443 50.836 914.999 50.964 914.455 50.964Z" fill="white"/>
<path d="M1050.11 42.06C1049.49 42.06 1048.91 41.956 1048.37 41.748C1047.84 41.532 1047.38 41.232 1046.99 40.848C1046.6 40.464 1046.3 40.016 1046.08 39.504C1045.86 38.984 1045.76 38.416 1045.76 37.8C1045.76 37.184 1045.86 36.62 1046.08 36.108C1046.3 35.588 1046.6 35.136 1046.99 34.752C1047.39 34.368 1047.86 34.072 1048.38 33.864C1048.91 33.648 1049.49 33.54 1050.11 33.54C1050.7 33.54 1051.26 33.636 1051.77 33.828C1052.29 34.02 1052.73 34.312 1053.1 34.704L1052.72 35.1C1052.36 34.748 1051.96 34.496 1051.52 34.344C1051.08 34.184 1050.62 34.104 1050.14 34.104C1049.6 34.104 1049.1 34.196 1048.64 34.38C1048.18 34.564 1047.78 34.824 1047.44 35.16C1047.1 35.496 1046.84 35.888 1046.64 36.336C1046.46 36.784 1046.37 37.272 1046.37 37.8C1046.37 38.328 1046.46 38.816 1046.64 39.264C1046.84 39.712 1047.1 40.104 1047.44 40.44C1047.78 40.776 1048.18 41.036 1048.64 41.22C1049.1 41.404 1049.6 41.496 1050.14 41.496C1050.62 41.496 1051.08 41.42 1051.52 41.268C1051.96 41.108 1052.36 40.848 1052.72 40.488L1053.1 40.884C1052.73 41.276 1052.29 41.572 1051.77 41.772C1051.26 41.964 1050.7 42.06 1050.11 42.06ZM1053.57 42L1057.44 33.6H1058.05L1061.91 42H1061.25L1057.6 33.984H1057.87L1054.23 42H1053.57ZM1054.99 39.636L1055.19 39.12H1060.22L1060.42 39.636H1054.99ZM1063.66 42V33.6H1064.17L1068.07 40.332H1067.8L1071.68 33.6H1072.19L1072.2 42H1071.6L1071.59 34.524H1071.76L1068.07 40.884H1067.77L1064.08 34.524H1064.26V42H1063.66ZM1073.94 42L1077.8 33.6H1078.41L1082.28 42H1081.62L1077.97 33.984H1078.23L1074.6 42H1073.94ZM1075.35 39.636L1075.56 39.12H1080.59L1080.79 39.636H1075.35ZM1088.8 42V39.18L1088.99 39.36H1086.12C1085.47 39.36 1084.91 39.248 1084.44 39.024C1083.98 38.8 1083.62 38.476 1083.37 38.052C1083.13 37.628 1083.01 37.12 1083.01 36.528C1083.01 35.896 1083.14 35.364 1083.41 34.932C1083.68 34.492 1084.06 34.16 1084.54 33.936C1085.02 33.712 1085.59 33.6 1086.24 33.6H1089.41V42H1088.8ZM1083.01 42L1085.06 39.06H1085.71L1083.67 42H1083.01ZM1088.8 39.024V33.96L1088.99 34.152H1086.29C1085.45 34.152 1084.8 34.352 1084.33 34.752C1083.87 35.152 1083.64 35.74 1083.64 36.516C1083.64 37.252 1083.85 37.824 1084.27 38.232C1084.7 38.632 1085.34 38.832 1086.18 38.832H1088.99L1088.8 39.024ZM1101.35 42L1097.96 37.776L1098.47 37.476L1102.07 42H1101.35ZM1095.52 42V33.6H1096.13V42H1095.52ZM1095.93 38.016V37.464H1098.48V38.016H1095.93ZM1098.51 37.86L1097.94 37.74L1101.17 33.6H1101.86L1098.51 37.86ZM1103.57 42V33.6H1106.58C1107.29 33.6 1107.89 33.712 1108.39 33.936C1108.9 34.16 1109.29 34.484 1109.56 34.908C1109.83 35.324 1109.97 35.832 1109.97 36.432C1109.97 37.016 1109.83 37.52 1109.56 37.944C1109.29 38.368 1108.9 38.692 1108.39 38.916C1107.89 39.14 1107.29 39.252 1106.58 39.252H1103.91L1104.18 38.964V42H1103.57ZM1104.18 39L1103.91 38.7H1106.58C1107.49 38.7 1108.17 38.504 1108.63 38.112C1109.11 37.712 1109.34 37.152 1109.34 36.432C1109.34 35.704 1109.11 35.144 1108.63 34.752C1108.17 34.352 1107.49 34.152 1106.58 34.152H1103.91L1104.18 33.852V39ZM1111.49 41.376C1111.88 41.528 1112.26 41.564 1112.63 41.484C1112.99 41.396 1113.34 41.096 1113.67 40.584L1114.08 39.948L1114.15 39.852L1117.46 33.6H1118.1L1114.22 40.728C1113.98 41.184 1113.7 41.52 1113.37 41.736C1113.05 41.952 1112.71 42.064 1112.35 42.072C1112 42.088 1111.65 42.024 1111.29 41.88L1111.49 41.376ZM1114.11 40.44L1110.51 33.6H1111.19L1114.46 39.9L1114.11 40.44ZM1119.61 42V33.6H1126.53V42H1125.91V33.96L1126.09 34.152H1120.05L1120.23 33.96V42H1119.61ZM1135.78 33.6H1136.39V42H1135.78V33.6ZM1130.16 42H1129.55V33.6H1130.16V42ZM1135.85 38.004H1130.09V37.464H1135.85V38.004ZM1138.13 42L1142 33.6H1142.61L1146.47 42H1145.81L1142.17 33.984H1142.43L1138.79 42H1138.13ZM1139.55 39.636L1139.75 39.12H1144.78L1144.99 39.636H1139.55ZM1152.99 42V39.18L1153.18 39.36H1150.32C1149.67 39.36 1149.11 39.248 1148.64 39.024C1148.17 38.8 1147.82 38.476 1147.57 38.052C1147.33 37.628 1147.21 37.12 1147.21 36.528C1147.21 35.896 1147.34 35.364 1147.6 34.932C1147.88 34.492 1148.25 34.16 1148.73 33.936C1149.22 33.712 1149.79 33.6 1150.44 33.6H1153.6V42H1152.99ZM1147.21 42L1149.26 39.06H1149.91L1147.87 42H1147.21ZM1152.99 39.024V33.96L1153.18 34.152H1150.48C1149.64 34.152 1148.99 34.352 1148.53 34.752C1148.06 35.152 1147.83 35.74 1147.83 36.516C1147.83 37.252 1148.04 37.824 1148.47 38.232C1148.9 38.632 1149.54 38.832 1150.38 38.832H1153.18L1152.99 39.024ZM1158.65 40.92L1158.9 40.488C1159.28 40.832 1159.7 41.088 1160.17 41.256C1160.64 41.424 1161.12 41.512 1161.6 41.52C1162.08 41.52 1162.52 41.448 1162.92 41.304C1163.33 41.152 1163.66 40.932 1163.9 40.644C1164.15 40.348 1164.28 39.992 1164.28 39.576C1164.28 39.032 1164.07 38.616 1163.65 38.328C1163.24 38.04 1162.65 37.896 1161.9 37.896H1160.17V37.368H1161.88C1162.52 37.368 1163.02 37.232 1163.38 36.96C1163.74 36.68 1163.92 36.296 1163.92 35.808C1163.92 35.456 1163.82 35.156 1163.62 34.908C1163.42 34.66 1163.16 34.468 1162.82 34.332C1162.5 34.188 1162.12 34.108 1161.71 34.092C1161.29 34.076 1160.86 34.128 1160.41 34.248C1159.97 34.368 1159.55 34.56 1159.14 34.824L1158.91 34.308C1159.4 34.012 1159.9 33.804 1160.42 33.684C1160.94 33.556 1161.45 33.512 1161.94 33.552C1162.43 33.592 1162.87 33.704 1163.26 33.888C1163.65 34.072 1163.96 34.32 1164.19 34.632C1164.42 34.944 1164.54 35.312 1164.54 35.736C1164.54 36.144 1164.44 36.5 1164.24 36.804C1164.04 37.1 1163.76 37.332 1163.39 37.5C1163.02 37.66 1162.59 37.74 1162.09 37.74L1162.14 37.512C1162.71 37.512 1163.2 37.6 1163.6 37.776C1164.02 37.952 1164.34 38.2 1164.56 38.52C1164.79 38.84 1164.9 39.216 1164.9 39.648C1164.9 40.064 1164.8 40.432 1164.59 40.752C1164.39 41.064 1164.11 41.324 1163.76 41.532C1163.42 41.732 1163.02 41.88 1162.58 41.976C1162.15 42.064 1161.7 42.084 1161.24 42.036C1160.78 41.996 1160.32 41.884 1159.87 41.7C1159.42 41.516 1159.02 41.256 1158.65 40.92ZM1167.29 42V33.6H1170.67C1171.53 33.6 1172.21 33.78 1172.71 34.14C1173.21 34.5 1173.47 35.032 1173.47 35.736C1173.47 36.432 1173.22 36.956 1172.73 37.308C1172.25 37.66 1171.63 37.836 1170.85 37.836L1171.05 37.596C1171.99 37.596 1172.7 37.78 1173.18 38.148C1173.66 38.516 1173.9 39.056 1173.9 39.768C1173.9 40.48 1173.65 41.032 1173.15 41.424C1172.66 41.808 1171.91 42 1170.9 42H1167.29ZM1167.9 41.484H1170.91C1171.69 41.484 1172.27 41.344 1172.67 41.064C1173.08 40.776 1173.29 40.332 1173.29 39.732C1173.29 39.124 1173.08 38.684 1172.67 38.412C1172.27 38.132 1171.69 37.992 1170.91 37.992H1167.9V41.484ZM1167.9 37.488H1170.66C1171.35 37.488 1171.89 37.348 1172.27 37.068C1172.65 36.78 1172.84 36.36 1172.84 35.808C1172.84 35.248 1172.65 34.828 1172.27 34.548C1171.89 34.26 1171.35 34.116 1170.66 34.116H1167.9V37.488ZM1176.83 37.464H1181.37V38.004H1176.83V37.464ZM1176.9 41.448H1182.08V42H1176.29V33.6H1181.9V34.152H1176.9V41.448ZM1183.06 40.92L1183.31 40.488C1183.69 40.832 1184.11 41.088 1184.58 41.256C1185.05 41.424 1185.53 41.512 1186.01 41.52C1186.49 41.52 1186.93 41.448 1187.33 41.304C1187.74 41.152 1188.07 40.932 1188.31 40.644C1188.56 40.348 1188.69 39.992 1188.69 39.576C1188.69 39.032 1188.48 38.616 1188.06 38.328C1187.65 38.04 1187.06 37.896 1186.31 37.896H1184.58V37.368H1186.29C1186.93 37.368 1187.43 37.232 1187.79 36.96C1188.15 36.68 1188.33 36.296 1188.33 35.808C1188.33 35.456 1188.23 35.156 1188.03 34.908C1187.83 34.66 1187.57 34.468 1187.23 34.332C1186.91 34.188 1186.53 34.108 1186.12 34.092C1185.7 34.076 1185.27 34.128 1184.82 34.248C1184.38 34.368 1183.96 34.56 1183.55 34.824L1183.32 34.308C1183.81 34.012 1184.31 33.804 1184.83 33.684C1185.35 33.556 1185.86 33.512 1186.35 33.552C1186.84 33.592 1187.28 33.704 1187.67 33.888C1188.06 34.072 1188.37 34.32 1188.6 34.632C1188.83 34.944 1188.95 35.312 1188.95 35.736C1188.95 36.144 1188.85 36.5 1188.65 36.804C1188.45 37.1 1188.17 37.332 1187.8 37.5C1187.43 37.66 1187 37.74 1186.5 37.74L1186.55 37.512C1187.12 37.512 1187.61 37.6 1188.01 37.776C1188.43 37.952 1188.75 38.2 1188.97 38.52C1189.2 38.84 1189.31 39.216 1189.31 39.648C1189.31 40.064 1189.21 40.432 1189 40.752C1188.8 41.064 1188.52 41.324 1188.17 41.532C1187.83 41.732 1187.43 41.88 1186.99 41.976C1186.56 42.064 1186.11 42.084 1185.65 42.036C1185.19 41.996 1184.73 41.884 1184.28 41.7C1183.83 41.516 1183.43 41.256 1183.06 40.92ZM1197.26 41.7V34.152H1192.97L1192.9 36.408C1192.87 37.072 1192.83 37.708 1192.78 38.316C1192.72 38.924 1192.64 39.472 1192.52 39.96C1192.41 40.44 1192.26 40.828 1192.06 41.124C1191.86 41.42 1191.62 41.58 1191.32 41.604L1190.62 41.448C1190.95 41.472 1191.22 41.356 1191.43 41.1C1191.65 40.844 1191.82 40.48 1191.94 40.008C1192.06 39.536 1192.16 38.988 1192.21 38.364C1192.27 37.74 1192.31 37.072 1192.33 36.36L1192.42 33.6H1197.88V41.7H1197.26ZM1190.3 43.92L1190.32 41.448H1199.17V43.92H1198.58V42H1190.9L1190.89 43.92H1190.3ZM1199.85 42L1203.71 33.6H1204.32L1208.19 42H1207.53L1203.88 33.984H1204.14L1200.51 42H1199.85ZM1201.26 39.636L1201.47 39.12H1206.49L1206.7 39.636H1201.26ZM1046.51 57V48.6H1049.9C1050.76 48.6 1051.44 48.78 1051.94 49.14C1052.44 49.5 1052.69 50.032 1052.69 50.736C1052.69 51.432 1052.45 51.956 1051.96 52.308C1051.48 52.66 1050.85 52.836 1050.08 52.836L1050.28 52.596C1051.22 52.596 1051.92 52.78 1052.4 53.148C1052.88 53.516 1053.12 54.056 1053.12 54.768C1053.12 55.48 1052.88 56.032 1052.38 56.424C1051.88 56.808 1051.13 57 1050.12 57H1046.51ZM1047.12 56.484H1050.14C1050.91 56.484 1051.5 56.344 1051.9 56.064C1052.31 55.776 1052.51 55.332 1052.51 54.732C1052.51 54.124 1052.31 53.684 1051.9 53.412C1051.5 53.132 1050.91 52.992 1050.14 52.992H1047.12V56.484ZM1047.12 52.488H1049.88C1050.58 52.488 1051.12 52.348 1051.49 52.068C1051.88 51.78 1052.07 51.36 1052.07 50.808C1052.07 50.248 1051.88 49.828 1051.49 49.548C1051.12 49.26 1050.58 49.116 1049.88 49.116H1047.12V52.488ZM1059.11 57.06C1058.49 57.06 1057.91 56.956 1057.37 56.748C1056.84 56.532 1056.38 56.232 1055.98 55.848C1055.59 55.456 1055.28 55.004 1055.07 54.492C1054.85 53.972 1054.74 53.408 1054.74 52.8C1054.74 52.192 1054.85 51.632 1055.07 51.12C1055.28 50.6 1055.59 50.148 1055.98 49.764C1056.38 49.372 1056.84 49.072 1057.37 48.864C1057.91 48.648 1058.49 48.54 1059.11 48.54C1059.74 48.54 1060.31 48.648 1060.84 48.864C1061.38 49.072 1061.84 49.368 1062.23 49.752C1062.62 50.136 1062.93 50.588 1063.14 51.108C1063.37 51.62 1063.48 52.184 1063.48 52.8C1063.48 53.416 1063.37 53.984 1063.14 54.504C1062.93 55.016 1062.62 55.464 1062.23 55.848C1061.84 56.232 1061.38 56.532 1060.84 56.748C1060.31 56.956 1059.74 57.06 1059.11 57.06ZM1059.11 56.496C1059.65 56.496 1060.14 56.404 1060.6 56.22C1061.06 56.036 1061.45 55.776 1061.79 55.44C1062.12 55.104 1062.38 54.712 1062.57 54.264C1062.76 53.816 1062.86 53.328 1062.86 52.8C1062.86 52.264 1062.76 51.776 1062.57 51.336C1062.38 50.888 1062.12 50.496 1061.79 50.16C1061.45 49.824 1061.06 49.564 1060.6 49.38C1060.14 49.196 1059.65 49.104 1059.11 49.104C1058.58 49.104 1058.08 49.196 1057.62 49.38C1057.17 49.564 1056.77 49.824 1056.42 50.16C1056.09 50.496 1055.82 50.888 1055.63 51.336C1055.45 51.776 1055.36 52.264 1055.36 52.8C1055.36 53.328 1055.45 53.816 1055.63 54.264C1055.82 54.712 1056.09 55.104 1056.42 55.44C1056.77 55.776 1057.17 56.036 1057.62 56.22C1058.08 56.404 1058.58 56.496 1059.11 56.496ZM1068.82 57V48.6H1069.34L1073.24 55.332H1072.96L1076.85 48.6H1077.36L1077.37 57H1076.77L1076.76 49.524H1076.92L1073.24 55.884H1072.94L1069.24 49.524H1069.42V57H1068.82ZM1079.43 57.06C1079.34 57.06 1079.24 57.052 1079.15 57.036C1079.06 57.028 1078.95 57.012 1078.83 56.988L1078.91 56.424C1079.04 56.456 1079.17 56.472 1079.3 56.472C1079.67 56.472 1079.97 56.328 1080.19 56.04C1080.42 55.752 1080.6 55.3 1080.72 54.684C1080.84 54.06 1080.92 53.248 1080.96 52.248L1081.08 48.6H1086.59V57H1085.97V48.96L1086.15 49.152H1081.46L1081.64 48.96L1081.52 52.236C1081.49 53.084 1081.43 53.812 1081.34 54.42C1081.25 55.02 1081.13 55.516 1080.96 55.908C1080.8 56.3 1080.59 56.592 1080.33 56.784C1080.09 56.968 1079.79 57.06 1079.43 57.06ZM1090.15 52.464H1094.7V53.004H1090.15V52.464ZM1090.23 56.448H1095.41V57H1089.61V48.6H1095.23V49.152H1090.23V56.448ZM1102.67 53.34C1102.17 53.564 1101.67 53.736 1101.16 53.856C1100.67 53.976 1100.19 54.036 1099.73 54.036C1098.78 54.036 1098.04 53.808 1097.5 53.352C1096.97 52.888 1096.71 52.24 1096.71 51.408V48.6H1097.32V51.348C1097.32 52.02 1097.54 52.544 1097.97 52.92C1098.41 53.296 1099.01 53.484 1099.78 53.484C1100.23 53.484 1100.7 53.424 1101.19 53.304C1101.68 53.176 1102.18 52.996 1102.67 52.764V53.34ZM1102.53 57V48.6H1103.14V57H1102.53ZM1112.39 48.6H1113V57H1112.39V48.6ZM1106.77 57H1106.16V48.6H1106.77V57ZM1112.46 53.004H1106.7V52.464H1112.46V53.004ZM1119.63 57.06C1119 57.06 1118.42 56.956 1117.89 56.748C1117.36 56.532 1116.9 56.232 1116.5 55.848C1116.1 55.456 1115.8 55.004 1115.58 54.492C1115.37 53.972 1115.26 53.408 1115.26 52.8C1115.26 52.192 1115.37 51.632 1115.58 51.12C1115.8 50.6 1116.1 50.148 1116.5 49.764C1116.9 49.372 1117.36 49.072 1117.89 48.864C1118.42 48.648 1119 48.54 1119.63 48.54C1120.25 48.54 1120.83 48.648 1121.36 48.864C1121.89 49.072 1122.36 49.368 1122.75 49.752C1123.14 50.136 1123.44 50.588 1123.66 51.108C1123.88 51.62 1124 52.184 1124 52.8C1124 53.416 1123.88 53.984 1123.66 54.504C1123.44 55.016 1123.14 55.464 1122.75 55.848C1122.36 56.232 1121.89 56.532 1121.36 56.748C1120.83 56.956 1120.25 57.06 1119.63 57.06ZM1119.63 56.496C1120.16 56.496 1120.66 56.404 1121.12 56.22C1121.57 56.036 1121.97 55.776 1122.3 55.44C1122.64 55.104 1122.9 54.712 1123.08 54.264C1123.28 53.816 1123.37 53.328 1123.37 52.8C1123.37 52.264 1123.28 51.776 1123.08 51.336C1122.9 50.888 1122.64 50.496 1122.3 50.16C1121.97 49.824 1121.57 49.564 1121.12 49.38C1120.66 49.196 1120.16 49.104 1119.63 49.104C1119.09 49.104 1118.6 49.196 1118.14 49.38C1117.68 49.564 1117.28 49.824 1116.94 50.16C1116.6 50.496 1116.34 50.888 1116.15 51.336C1115.96 51.776 1115.87 52.264 1115.87 52.8C1115.87 53.328 1115.96 53.816 1116.15 54.264C1116.34 54.712 1116.6 55.104 1116.94 55.44C1117.28 55.776 1117.68 56.036 1118.14 56.22C1118.6 56.404 1119.09 56.496 1119.63 56.496ZM1126.26 57V48.6H1126.77L1130.67 55.332H1130.4L1134.29 48.6H1134.79L1134.8 57H1134.2L1134.19 49.524H1134.36L1130.67 55.884H1130.37L1126.68 49.524H1126.86V57H1126.26ZM1140.91 57V48.6H1147.82V57H1147.21V48.96L1147.39 49.152H1141.34L1141.52 48.96V57H1140.91ZM1150.59 56.376C1150.98 56.528 1151.36 56.564 1151.73 56.484C1152.1 56.396 1152.45 56.096 1152.78 55.584L1153.18 54.948L1153.26 54.852L1156.57 48.6H1157.2L1153.33 55.728C1153.09 56.184 1152.8 56.52 1152.48 56.736C1152.16 56.952 1151.82 57.064 1151.46 57.072C1151.1 57.088 1150.75 57.024 1150.4 56.88L1150.59 56.376ZM1153.22 55.44L1149.62 48.6H1150.29L1153.57 54.9L1153.22 55.44ZM1160.49 57V48.96L1160.67 49.152H1157.47V48.6H1164.13V49.152H1160.92L1161.1 48.96V57H1160.49ZM1165.76 57V48.6H1166.37V55.968L1172.1 48.6H1172.64V57H1172.03V49.644L1166.3 57H1165.76ZM1180.91 57.06C1180.28 57.06 1179.69 56.956 1179.13 56.748C1178.58 56.532 1178.15 56.256 1177.85 55.92L1178.12 55.464C1178.41 55.76 1178.8 56.012 1179.3 56.22C1179.8 56.42 1180.33 56.52 1180.89 56.52C1181.45 56.52 1181.91 56.448 1182.26 56.304C1182.62 56.152 1182.89 55.952 1183.05 55.704C1183.23 55.456 1183.32 55.18 1183.32 54.876C1183.32 54.516 1183.22 54.228 1183.03 54.012C1182.84 53.796 1182.59 53.624 1182.27 53.496C1181.96 53.368 1181.62 53.26 1181.25 53.172C1180.89 53.084 1180.51 52.992 1180.14 52.896C1179.76 52.792 1179.42 52.66 1179.11 52.5C1178.79 52.34 1178.54 52.124 1178.35 51.852C1178.17 51.572 1178.07 51.212 1178.07 50.772C1178.07 50.372 1178.18 50.004 1178.39 49.668C1178.59 49.332 1178.92 49.06 1179.36 48.852C1179.8 48.644 1180.36 48.54 1181.05 48.54C1181.51 48.54 1181.97 48.608 1182.42 48.744C1182.87 48.88 1183.26 49.064 1183.58 49.296L1183.35 49.788C1183 49.548 1182.62 49.372 1182.21 49.26C1181.81 49.14 1181.43 49.08 1181.05 49.08C1180.51 49.08 1180.07 49.156 1179.72 49.308C1179.37 49.46 1179.11 49.664 1178.94 49.92C1178.77 50.168 1178.69 50.448 1178.69 50.76C1178.69 51.12 1178.78 51.408 1178.96 51.624C1179.15 51.84 1179.41 52.012 1179.72 52.14C1180.03 52.268 1180.37 52.376 1180.75 52.464C1181.13 52.552 1181.5 52.648 1181.87 52.752C1182.23 52.848 1182.57 52.976 1182.89 53.136C1183.2 53.296 1183.45 53.512 1183.64 53.784C1183.83 54.056 1183.93 54.408 1183.93 54.84C1183.93 55.232 1183.82 55.6 1183.61 55.944C1183.39 56.28 1183.06 56.552 1182.61 56.76C1182.17 56.96 1181.6 57.06 1180.91 57.06ZM1187.5 57V49.152H1184.48V48.6H1191.14V49.152H1188.11V57H1187.5ZM1193.2 52.464H1197.74V53.004H1193.2V52.464ZM1193.27 56.448H1198.45V57H1192.66V48.6H1198.27V49.152H1193.27V56.448ZM1200.68 57V48.6H1203.69C1204.4 48.6 1205 48.712 1205.51 48.936C1206.01 49.16 1206.4 49.484 1206.67 49.908C1206.94 50.324 1207.08 50.832 1207.08 51.432C1207.08 52.016 1206.94 52.52 1206.67 52.944C1206.4 53.368 1206.01 53.692 1205.51 53.916C1205 54.14 1204.4 54.252 1203.69 54.252H1201.02L1201.29 53.964V57H1200.68ZM1201.29 54L1201.02 53.7H1203.69C1204.6 53.7 1205.28 53.504 1205.75 53.112C1206.22 52.712 1206.45 52.152 1206.45 51.432C1206.45 50.704 1206.22 50.144 1205.75 49.752C1205.28 49.352 1204.6 49.152 1203.69 49.152H1201.02L1201.29 48.852V54ZM1215.37 48.6H1215.98V57H1215.37V48.6ZM1209.76 57H1209.14V48.6H1209.76V57ZM1215.44 53.004H1209.68V52.464H1215.44V53.004ZM1219.46 52.464H1224.01V53.004H1219.46V52.464ZM1219.53 56.448H1224.71V57H1218.92V48.6H1224.53V49.152H1219.53V56.448ZM1226.94 57V48.6H1227.46L1233.45 56.244H1233.17V48.6H1233.78V57H1233.28L1227.28 49.356H1227.56V57H1226.94ZM1238.93 57.06C1238.3 57.06 1237.71 56.956 1237.15 56.748C1236.6 56.532 1236.17 56.256 1235.87 55.92L1236.14 55.464C1236.43 55.76 1236.82 56.012 1237.32 56.22C1237.82 56.42 1238.35 56.52 1238.91 56.52C1239.47 56.52 1239.93 56.448 1240.28 56.304C1240.64 56.152 1240.91 55.952 1241.07 55.704C1241.25 55.456 1241.34 55.18 1241.34 54.876C1241.34 54.516 1241.24 54.228 1241.05 54.012C1240.86 53.796 1240.61 53.624 1240.29 53.496C1239.98 53.368 1239.64 53.26 1239.27 53.172C1238.91 53.084 1238.53 52.992 1238.16 52.896C1237.78 52.792 1237.44 52.66 1237.13 52.5C1236.81 52.34 1236.56 52.124 1236.37 51.852C1236.19 51.572 1236.09 51.212 1236.09 50.772C1236.09 50.372 1236.2 50.004 1236.41 49.668C1236.61 49.332 1236.94 49.06 1237.38 48.852C1237.82 48.644 1238.38 48.54 1239.07 48.54C1239.53 48.54 1239.99 48.608 1240.44 48.744C1240.89 48.88 1241.28 49.064 1241.6 49.296L1241.37 49.788C1241.02 49.548 1240.64 49.372 1240.23 49.26C1239.83 49.14 1239.45 49.08 1239.07 49.08C1238.53 49.08 1238.09 49.156 1237.74 49.308C1237.39 49.46 1237.13 49.664 1236.96 49.92C1236.79 50.168 1236.71 50.448 1236.71 50.76C1236.71 51.12 1236.8 51.408 1236.98 51.624C1237.17 51.84 1237.43 52.012 1237.74 52.14C1238.05 52.268 1238.39 52.376 1238.77 52.464C1239.15 52.552 1239.52 52.648 1239.89 52.752C1240.25 52.848 1240.59 52.976 1240.91 53.136C1241.22 53.296 1241.47 53.512 1241.66 53.784C1241.85 54.056 1241.95 54.408 1241.95 54.84C1241.95 55.232 1241.84 55.6 1241.63 55.944C1241.41 56.28 1241.08 56.552 1240.63 56.76C1240.19 56.96 1239.62 57.06 1238.93 57.06ZM1247.59 57.06C1246.97 57.06 1246.39 56.956 1245.85 56.748C1245.33 56.532 1244.86 56.232 1244.46 55.848C1244.07 55.456 1243.77 55.004 1243.55 54.492C1243.33 53.972 1243.23 53.408 1243.23 52.8C1243.23 52.192 1243.33 51.632 1243.55 51.12C1243.77 50.6 1244.07 50.148 1244.46 49.764C1244.86 49.372 1245.33 49.072 1245.85 48.864C1246.39 48.648 1246.97 48.54 1247.59 48.54C1248.22 48.54 1248.79 48.648 1249.32 48.864C1249.86 49.072 1250.32 49.368 1250.71 49.752C1251.11 50.136 1251.41 50.588 1251.63 51.108C1251.85 51.62 1251.96 52.184 1251.96 52.8C1251.96 53.416 1251.85 53.984 1251.63 54.504C1251.41 55.016 1251.11 55.464 1250.71 55.848C1250.32 56.232 1249.86 56.532 1249.32 56.748C1248.79 56.956 1248.22 57.06 1247.59 57.06ZM1247.59 56.496C1248.13 56.496 1248.63 56.404 1249.08 56.22C1249.54 56.036 1249.93 55.776 1250.27 55.44C1250.61 55.104 1250.87 54.712 1251.05 54.264C1251.24 53.816 1251.34 53.328 1251.34 52.8C1251.34 52.264 1251.24 51.776 1251.05 51.336C1250.87 50.888 1250.61 50.496 1250.27 50.16C1249.93 49.824 1249.54 49.564 1249.08 49.38C1248.63 49.196 1248.13 49.104 1247.59 49.104C1247.06 49.104 1246.56 49.196 1246.11 49.38C1245.65 49.564 1245.25 49.824 1244.91 50.16C1244.57 50.496 1244.31 50.888 1244.11 51.336C1243.93 51.776 1243.84 52.264 1243.84 52.8C1243.84 53.328 1243.93 53.816 1244.11 54.264C1244.31 54.712 1244.57 55.104 1244.91 55.44C1245.25 55.776 1245.65 56.036 1246.11 56.22C1246.56 56.404 1247.06 56.496 1247.59 56.496ZM1254.09 57V48.6H1254.6L1260.59 56.244H1260.31V48.6H1260.93V57H1260.42L1254.42 49.356H1254.7V57H1254.09ZM1265.97 57V56.568L1269.52 53.04C1269.86 52.704 1270.11 52.412 1270.28 52.164C1270.44 51.908 1270.56 51.672 1270.61 51.456C1270.68 51.24 1270.71 51.028 1270.71 50.82C1270.71 50.292 1270.53 49.876 1270.17 49.572C1269.81 49.26 1269.28 49.104 1268.58 49.104C1268.06 49.104 1267.59 49.184 1267.19 49.344C1266.8 49.504 1266.46 49.748 1266.17 50.076L1265.74 49.692C1266.06 49.324 1266.46 49.04 1266.95 48.84C1267.45 48.64 1268.01 48.54 1268.63 48.54C1269.18 48.54 1269.66 48.632 1270.06 48.816C1270.47 48.992 1270.78 49.248 1271 49.584C1271.22 49.912 1271.33 50.304 1271.33 50.76C1271.33 51.032 1271.29 51.3 1271.21 51.564C1271.14 51.82 1271 52.092 1270.8 52.38C1270.61 52.668 1270.33 52.996 1269.96 53.364L1266.63 56.688L1266.42 56.448H1271.74V57H1265.97ZM1272.88 54.048V53.508H1275.96V54.048H1272.88ZM1278.68 57V48.864L1278.95 49.152H1276.62V48.6H1279.29V57H1278.68ZM1284.53 57.06C1283.86 57.06 1283.29 56.964 1282.82 56.772C1282.35 56.58 1281.99 56.308 1281.73 55.956C1281.48 55.604 1281.36 55.184 1281.36 54.696C1281.36 54.224 1281.48 53.82 1281.73 53.484C1281.98 53.148 1282.34 52.892 1282.81 52.716C1283.28 52.532 1283.85 52.44 1284.53 52.44C1285.2 52.44 1285.77 52.532 1286.24 52.716C1286.72 52.892 1287.09 53.148 1287.33 53.484C1287.59 53.82 1287.72 54.224 1287.72 54.696C1287.72 55.184 1287.59 55.604 1287.33 55.956C1287.08 56.308 1286.71 56.58 1286.23 56.772C1285.76 56.964 1285.19 57.06 1284.53 57.06ZM1284.53 56.532C1285.33 56.532 1285.97 56.368 1286.42 56.04C1286.88 55.712 1287.11 55.264 1287.11 54.696C1287.11 54.136 1286.88 53.692 1286.42 53.364C1285.97 53.036 1285.33 52.872 1284.53 52.872C1283.72 52.872 1283.09 53.036 1282.64 53.364C1282.19 53.692 1281.97 54.136 1281.97 54.696C1281.97 55.264 1282.19 55.712 1282.64 56.04C1283.09 56.368 1283.72 56.532 1284.53 56.532ZM1284.53 52.788C1283.92 52.788 1283.4 52.708 1282.97 52.548C1282.54 52.38 1282.22 52.14 1281.99 51.828C1281.77 51.516 1281.66 51.144 1281.66 50.712C1281.66 50.264 1281.77 49.88 1282.01 49.56C1282.25 49.232 1282.58 48.98 1283.01 48.804C1283.45 48.628 1283.95 48.54 1284.53 48.54C1285.11 48.54 1285.62 48.628 1286.05 48.804C1286.48 48.98 1286.82 49.232 1287.06 49.56C1287.3 49.88 1287.42 50.264 1287.42 50.712C1287.42 51.144 1287.3 51.516 1287.07 51.828C1286.85 52.14 1286.52 52.38 1286.09 52.548C1285.65 52.708 1285.13 52.788 1284.53 52.788ZM1284.53 52.368C1285.25 52.368 1285.81 52.22 1286.21 51.924C1286.61 51.628 1286.81 51.232 1286.81 50.736C1286.81 50.216 1286.6 49.808 1286.18 49.512C1285.77 49.216 1285.22 49.068 1284.53 49.068C1283.84 49.068 1283.29 49.216 1282.88 49.512C1282.47 49.808 1282.27 50.212 1282.27 50.724C1282.27 51.228 1282.47 51.628 1282.86 51.924C1283.26 52.22 1283.81 52.368 1284.53 52.368Z" fill="white"/>
</svg>
